<svg width="216" height="61" viewBox="0 0 216 61" fill="none" xmlns="http://www.w3.org/2000/svg">
<path d="M50.9646 55.6172L59.4619 48.4349L32.5634 2.84119L6.43119 48.4349L15.4085 55.6172L38.5217 12.935L34.6044 29.227L50.9646 55.6172Z" fill="#091069"/>
<path d="M46.5112 48.4349H18.7945L15.4085 55.6171L46.5112 48.4349Z" fill="#091069"/>
<path d="M32.5634 30.0065L42.4717 46.2416H23.483L32.5634 30.0065Z" fill="#091069"/>
<path d="M38.5217 12.935L32.9441 26.6413L50.9646 55.6172L59.4619 48.4349L38.5217 12.935Z" fill="#091069"/>
<path d="M75.3263 24.5417C75.2196 24.5417 75.1263 24.5017 75.0463 24.4217C74.9663 24.3417 74.9263 24.2484 74.9263 24.1417C74.9263 24.035 74.933 23.9617 74.9463 23.9217L79.9063 10.9817C80.013 10.6884 80.2263 10.5417 80.5463 10.5417H81.9063C82.2263 10.5417 82.4396 10.6884 82.5463 10.9817L87.4863 23.9217L87.5263 24.1417C87.5263 24.2484 87.4863 24.3417 87.4063 24.4217C87.3263 24.5017 87.233 24.5417 87.1263 24.5417H86.1063C85.9596 24.5417 85.8463 24.5084 85.7663 24.4417C85.6863 24.3617 85.633 24.2817 85.6063 24.2017L84.5063 21.3617H77.9463L76.8463 24.2017C76.8196 24.2817 76.7596 24.3617 76.6663 24.4417C76.5863 24.5084 76.4796 24.5417 76.3463 24.5417H75.3263ZM83.9263 19.6417L81.2263 12.5417L78.5263 19.6417H83.9263ZM95.5694 24.7417C94.4628 24.7417 93.5028 24.5684 92.6894 24.2217C91.8894 23.875 91.2761 23.4217 90.8494 22.8617C90.4228 22.2884 90.1961 21.675 90.1694 21.0217C90.1694 20.915 90.2094 20.8217 90.2894 20.7417C90.3828 20.6484 90.4894 20.6017 90.6094 20.6017H91.6294C91.8828 20.6017 92.0561 20.735 92.1494 21.0017C92.2694 21.5617 92.6094 22.0417 93.1694 22.4417C93.7428 22.8417 94.5428 23.0417 95.5694 23.0417C96.6761 23.0417 97.5094 22.8484 98.0694 22.4617C98.6294 22.0617 98.9094 21.5084 98.9094 20.8017C98.9094 20.3484 98.7694 19.9817 98.4894 19.7017C98.2228 19.4217 97.8228 19.175 97.2894 18.9617C96.7561 18.7484 95.9561 18.4817 94.8894 18.1617C93.8494 17.8684 93.0228 17.555 92.4094 17.2217C91.7961 16.8884 91.3361 16.475 91.0294 15.9817C90.7228 15.4884 90.5694 14.8684 90.5694 14.1217C90.5694 13.4017 90.7628 12.755 91.1494 12.1817C91.5494 11.6084 92.1161 11.1617 92.8494 10.8417C93.5828 10.5084 94.4561 10.3417 95.4694 10.3417C96.5094 10.3417 97.4028 10.5284 98.1494 10.9017C98.8961 11.2617 99.4628 11.7217 99.8494 12.2817C100.236 12.8417 100.443 13.4017 100.469 13.9617C100.469 14.0684 100.429 14.1617 100.349 14.2417C100.283 14.3217 100.183 14.3617 100.049 14.3617H98.9894C98.7094 14.3617 98.5361 14.235 98.4694 13.9817C98.3894 13.4217 98.0761 12.9617 97.5294 12.6017C96.9828 12.2284 96.2961 12.0417 95.4694 12.0417C94.5628 12.0417 93.8494 12.215 93.3294 12.5617C92.8094 12.9084 92.5494 13.4217 92.5494 14.1017C92.5494 14.555 92.6694 14.9284 92.9094 15.2217C93.1628 15.515 93.5428 15.775 94.0494 16.0017C94.5561 16.215 95.2961 16.4617 96.2694 16.7417C97.4028 17.0484 98.2961 17.3684 98.9494 17.7017C99.6028 18.0217 100.089 18.4284 100.409 18.9217C100.729 19.4017 100.889 20.015 100.889 20.7617C100.889 22.0017 100.409 22.975 99.4494 23.6817C98.4894 24.3884 97.1961 24.7417 95.5694 24.7417ZM105.571 24.5417C105.438 24.5417 105.324 24.5017 105.231 24.4217C105.151 24.3284 105.111 24.215 105.111 24.0817V11.0217C105.111 10.875 105.151 10.7617 105.231 10.6817C105.324 10.5884 105.438 10.5417 105.571 10.5417H110.651C112.158 10.5417 113.344 10.9084 114.211 11.6417C115.078 12.375 115.511 13.435 115.511 14.8217C115.511 16.2084 115.078 17.2684 114.211 18.0017C113.358 18.7217 112.171 19.0817 110.651 19.0817H107.111V24.0817C107.111 24.215 107.064 24.3284 106.971 24.4217C106.878 24.5017 106.764 24.5417 106.631 24.5417H105.571ZM110.551 17.4017C111.524 17.4017 112.258 17.1817 112.751 16.7417C113.258 16.3017 113.511 15.6617 113.511 14.8217C113.511 13.9817 113.264 13.3417 112.771 12.9017C112.278 12.4484 111.538 12.2217 110.551 12.2217H107.091V17.4017H110.551ZM120.003 24.5417C119.87 24.5417 119.756 24.5017 119.663 24.4217C119.583 24.3284 119.543 24.215 119.543 24.0817V11.0017C119.543 10.8684 119.583 10.7617 119.663 10.6817C119.756 10.5884 119.87 10.5417 120.003 10.5417H121.063C121.196 10.5417 121.303 10.5884 121.383 10.6817C121.476 10.7617 121.523 10.8684 121.523 11.0017V24.0817C121.523 24.215 121.476 24.3284 121.383 24.4217C121.303 24.5017 121.196 24.5417 121.063 24.5417H120.003ZM125.672 24.5417C125.565 24.5417 125.472 24.5017 125.392 24.4217C125.312 24.3417 125.272 24.2484 125.272 24.1417C125.272 24.035 125.278 23.9617 125.292 23.9217L130.252 10.9817C130.358 10.6884 130.572 10.5417 130.892 10.5417H132.252C132.572 10.5417 132.785 10.6884 132.892 10.9817L137.832 23.9217L137.872 24.1417C137.872 24.2484 137.832 24.3417 137.752 24.4217C137.672 24.5017 137.578 24.5417 137.472 24.5417H136.452C136.305 24.5417 136.192 24.5084 136.112 24.4417C136.032 24.3617 135.978 24.2817 135.952 24.2017L134.852 21.3617H128.292L127.192 24.2017C127.165 24.2817 127.105 24.3617 127.012 24.4417C126.932 24.5084 126.825 24.5417 126.692 24.5417H125.672ZM134.272 19.6417L131.572 12.5417L128.872 19.6417H134.272ZM142.07 24.5417C141.937 24.5417 141.823 24.5017 141.73 24.4217C141.65 24.3284 141.61 24.215 141.61 24.0817V11.0217C141.61 10.875 141.65 10.7617 141.73 10.6817C141.823 10.5884 141.937 10.5417 142.07 10.5417H142.99C143.23 10.5417 143.397 10.635 143.49 10.8217L150.13 21.0217V11.0217C150.13 10.875 150.17 10.7617 150.25 10.6817C150.343 10.5884 150.457 10.5417 150.59 10.5417H151.55C151.697 10.5417 151.81 10.5884 151.89 10.6817C151.983 10.7617 152.03 10.875 152.03 11.0217V24.0617C152.03 24.195 151.983 24.3084 151.89 24.4017C151.81 24.495 151.703 24.5417 151.57 24.5417H150.61C150.41 24.5417 150.25 24.4484 150.13 24.2617L143.51 14.1617V24.0817C143.51 24.215 143.463 24.3284 143.37 24.4217C143.277 24.5017 143.163 24.5417 143.03 24.5417H142.07ZM157.576 24.5417C157.443 24.5417 157.33 24.5017 157.236 24.4217C157.156 24.3284 157.116 24.215 157.116 24.0817V11.0217C157.116 10.875 157.156 10.7617 157.236 10.6817C157.33 10.5884 157.443 10.5417 157.576 10.5417H165.836C165.97 10.5417 166.076 10.5884 166.156 10.6817C166.25 10.7617 166.296 10.875 166.296 11.0217V11.7817C166.296 11.915 166.256 12.0284 166.176 12.1217C166.096 12.2017 165.983 12.2417 165.836 12.2417H159.036V16.6217H165.396C165.53 16.6217 165.636 16.6684 165.716 16.7617C165.81 16.8417 165.856 16.955 165.856 17.1017V17.8417C165.856 17.975 165.81 18.0884 165.716 18.1817C165.636 18.2617 165.53 18.3017 165.396 18.3017H159.036V22.8417H165.996C166.143 22.8417 166.256 22.8817 166.336 22.9617C166.416 23.0417 166.456 23.155 166.456 23.3017V24.0817C166.456 24.215 166.41 24.3284 166.316 24.4217C166.236 24.5017 166.13 24.5417 165.996 24.5417H157.576ZM174.365 24.5417C174.232 24.5417 174.119 24.5017 174.025 24.4217C173.945 24.3284 173.905 24.215 173.905 24.0817V12.3217H170.065C169.932 12.3217 169.819 12.2817 169.725 12.2017C169.645 12.1084 169.605 11.995 169.605 11.8617V11.0217C169.605 10.8884 169.645 10.775 169.725 10.6817C169.819 10.5884 169.932 10.5417 170.065 10.5417H179.705C179.852 10.5417 179.965 10.5884 180.045 10.6817C180.139 10.7617 180.185 10.875 180.185 11.0217V11.8617C180.185 11.995 180.139 12.1084 180.045 12.2017C179.952 12.2817 179.839 12.3217 179.705 12.3217H175.885V24.0817C175.885 24.215 175.839 24.3284 175.745 24.4217C175.652 24.5017 175.539 24.5417 175.405 24.5417H174.365Z" fill="white"/>
<path d="M78.2703 49.62C77.6063 49.62 77.0303 49.516 76.5423 49.308C76.0623 49.1 75.6943 48.828 75.4383 48.492C75.1823 48.148 75.0463 47.78 75.0303 47.388C75.0303 47.324 75.0543 47.268 75.1023 47.22C75.1583 47.164 75.2223 47.136 75.2943 47.136H75.9063C76.0583 47.136 76.1623 47.216 76.2183 47.376C76.2903 47.712 76.4943 48 76.8303 48.24C77.1743 48.48 77.6543 48.6 78.2703 48.6C78.9343 48.6 79.4343 48.484 79.7703 48.252C80.1063 48.012 80.2743 47.68 80.2743 47.256C80.2743 46.984 80.1903 46.764 80.0223 46.596C79.8623 46.428 79.6223 46.28 79.3023 46.152C78.9823 46.024 78.5023 45.864 77.8623 45.672C77.2383 45.496 76.7423 45.308 76.3743 45.108C76.0063 44.908 75.7303 44.66 75.5463 44.364C75.3623 44.068 75.2703 43.696 75.2703 43.248C75.2703 42.816 75.3863 42.428 75.6183 42.084C75.8583 41.74 76.1983 41.472 76.6383 41.28C77.0783 41.08 77.6023 40.98 78.2103 40.98C78.8343 40.98 79.3703 41.092 79.8183 41.316C80.2663 41.532 80.6063 41.808 80.8383 42.144C81.0703 42.48 81.1943 42.816 81.2103 43.152C81.2103 43.216 81.1863 43.272 81.1383 43.32C81.0983 43.368 81.0383 43.392 80.9583 43.392H80.3223C80.1543 43.392 80.0503 43.316 80.0103 43.164C79.9623 42.828 79.7743 42.552 79.4463 42.336C79.1183 42.112 78.7063 42 78.2103 42C77.6663 42 77.2383 42.104 76.9263 42.312C76.6143 42.52 76.4583 42.828 76.4583 43.236C76.4583 43.508 76.5303 43.732 76.6743 43.908C76.8263 44.084 77.0543 44.24 77.3583 44.376C77.6623 44.504 78.1063 44.652 78.6903 44.82C79.3703 45.004 79.9063 45.196 80.2983 45.396C80.6903 45.588 80.9823 45.832 81.1743 46.128C81.3663 46.416 81.4623 46.784 81.4623 47.232C81.4623 47.976 81.1743 48.56 80.5983 48.984C80.0223 49.408 79.2463 49.62 78.2703 49.62ZM85.4351 49.62C84.5551 49.62 83.8711 49.372 83.3831 48.876C82.9031 48.38 82.6471 47.72 82.6151 46.896L82.6031 46.38L82.6151 45.864C82.6471 45.048 82.9071 44.392 83.3951 43.896C83.8831 43.392 84.5631 43.14 85.4351 43.14C86.3072 43.14 86.9872 43.392 87.4752 43.896C87.9632 44.392 88.2232 45.048 88.2552 45.864C88.2631 45.952 88.2671 46.124 88.2671 46.38C88.2671 46.636 88.2631 46.808 88.2552 46.896C88.2232 47.72 87.9632 48.38 87.4752 48.876C86.9952 49.372 86.3152 49.62 85.4351 49.62ZM85.4351 48.696C85.9392 48.696 86.3352 48.536 86.6231 48.216C86.9191 47.896 87.0792 47.436 87.1032 46.836C87.1112 46.756 87.1152 46.604 87.1152 46.38C87.1152 46.156 87.1112 46.004 87.1032 45.924C87.0792 45.324 86.9191 44.864 86.6231 44.544C86.3352 44.224 85.9392 44.064 85.4351 44.064C84.9311 44.064 84.5311 44.224 84.2351 44.544C83.9391 44.864 83.7831 45.324 83.7671 45.924L83.7551 46.38L83.7671 46.836C83.7831 47.436 83.9391 47.896 84.2351 48.216C84.5311 48.536 84.9311 48.696 85.4351 48.696ZM90.5995 49.5C90.5195 49.5 90.4515 49.476 90.3955 49.428C90.3475 49.372 90.3235 49.304 90.3235 49.224V44.22H89.3035C89.2235 44.22 89.1555 44.196 89.0995 44.148C89.0515 44.092 89.0275 44.024 89.0275 43.944V43.536C89.0275 43.456 89.0515 43.392 89.0995 43.344C89.1555 43.288 89.2235 43.26 89.3035 43.26H90.3235V42.66C90.3235 41.3 91.0115 40.62 92.3875 40.62H93.1075C93.1875 40.62 93.2515 40.648 93.2995 40.704C93.3555 40.752 93.3835 40.816 93.3835 40.896V41.304C93.3835 41.384 93.3555 41.452 93.2995 41.508C93.2515 41.556 93.1875 41.58 93.1075 41.58H92.4115C92.0515 41.58 91.7995 41.676 91.6555 41.868C91.5115 42.052 91.4395 42.336 91.4395 42.72V43.26H92.9875C93.0675 43.26 93.1315 43.288 93.1795 43.344C93.2355 43.392 93.2635 43.456 93.2635 43.536V43.944C93.2635 44.024 93.2355 44.092 93.1795 44.148C93.1315 44.196 93.0675 44.22 92.9875 44.22H91.4395V49.224C91.4395 49.304 91.4115 49.372 91.3555 49.428C91.3075 49.476 91.2435 49.5 91.1635 49.5H90.5995ZM96.7527 49.5C95.4886 49.5 94.8566 48.796 94.8566 47.388V44.22H93.9206C93.8406 44.22 93.7726 44.196 93.7166 44.148C93.6686 44.092 93.6446 44.024 93.6446 43.944V43.536C93.6446 43.456 93.6686 43.392 93.7166 43.344C93.7726 43.288 93.8406 43.26 93.9206 43.26H94.8566V41.256C94.8566 41.176 94.8806 41.112 94.9286 41.064C94.9846 41.008 95.0526 40.98 95.1326 40.98H95.6967C95.7767 40.98 95.8407 41.008 95.8887 41.064C95.9447 41.112 95.9727 41.176 95.9727 41.256V43.26H97.4607C97.5407 43.26 97.6047 43.288 97.6527 43.344C97.7087 43.392 97.7367 43.456 97.7367 43.536V43.944C97.7367 44.024 97.7087 44.092 97.6527 44.148C97.6047 44.196 97.5407 44.22 97.4607 44.22H95.9727V47.304C95.9727 47.704 96.0407 48.008 96.1767 48.216C96.3127 48.416 96.5367 48.516 96.8487 48.516H97.5807C97.6607 48.516 97.7247 48.544 97.7727 48.6C97.8287 48.648 97.8567 48.712 97.8567 48.792V49.224C97.8567 49.304 97.8287 49.372 97.7727 49.428C97.7247 49.476 97.6607 49.5 97.5807 49.5H96.7527ZM100.66 49.5C100.556 49.5 100.476 49.476 100.42 49.428C100.364 49.38 100.316 49.304 100.276 49.2L98.5721 43.632L98.5481 43.512C98.5481 43.44 98.5721 43.38 98.6201 43.332C98.6761 43.284 98.7361 43.26 98.8001 43.26H99.3281C99.4081 43.26 99.4721 43.284 99.5201 43.332C99.5761 43.372 99.6121 43.416 99.6281 43.464L100.96 47.988L102.388 43.512C102.404 43.448 102.44 43.392 102.496 43.344C102.552 43.288 102.628 43.26 102.724 43.26H103.132C103.228 43.26 103.304 43.288 103.36 43.344C103.416 43.392 103.452 43.448 103.468 43.512L104.896 47.988L106.228 43.464C106.236 43.424 106.264 43.38 106.312 43.332C106.368 43.284 106.436 43.26 106.516 43.26H107.056C107.12 43.26 107.176 43.284 107.224 43.332C107.272 43.38 107.296 43.44 107.296 43.512L107.272 43.632L105.58 49.2C105.54 49.304 105.492 49.38 105.436 49.428C105.38 49.476 105.296 49.5 105.184 49.5H104.716C104.5 49.5 104.368 49.4 104.32 49.2L102.928 44.904L101.536 49.2C101.472 49.4 101.336 49.5 101.128 49.5H100.66ZM110.189 49.62C109.797 49.62 109.433 49.54 109.097 49.38C108.761 49.22 108.493 49.004 108.293 48.732C108.101 48.452 108.005 48.144 108.005 47.808C108.005 47.28 108.221 46.848 108.653 46.512C109.093 46.168 109.685 45.944 110.429 45.84L112.217 45.588V45.24C112.217 44.424 111.749 44.016 110.813 44.016C110.461 44.016 110.173 44.092 109.949 44.244C109.725 44.388 109.557 44.56 109.445 44.76C109.421 44.832 109.389 44.884 109.349 44.916C109.317 44.948 109.269 44.964 109.205 44.964H108.689C108.617 44.964 108.553 44.94 108.497 44.892C108.449 44.836 108.425 44.772 108.425 44.7C108.433 44.508 108.521 44.292 108.689 44.052C108.865 43.804 109.133 43.592 109.493 43.416C109.853 43.232 110.297 43.14 110.825 43.14C111.721 43.14 112.365 43.352 112.757 43.776C113.149 44.192 113.345 44.712 113.345 45.336V49.224C113.345 49.304 113.317 49.372 113.261 49.428C113.213 49.476 113.149 49.5 113.069 49.5H112.517C112.437 49.5 112.369 49.476 112.313 49.428C112.265 49.372 112.241 49.304 112.241 49.224V48.708C112.065 48.964 111.809 49.18 111.473 49.356C111.137 49.532 110.709 49.62 110.189 49.62ZM110.441 48.72C110.961 48.72 111.385 48.552 111.713 48.216C112.049 47.872 112.217 47.38 112.217 46.74V46.404L110.825 46.608C110.257 46.688 109.829 46.824 109.541 47.016C109.253 47.2 109.109 47.436 109.109 47.724C109.109 48.044 109.241 48.292 109.505 48.468C109.769 48.636 110.081 48.72 110.441 48.72ZM115.347 49.5C115.267 49.5 115.199 49.476 115.143 49.428C115.095 49.372 115.071 49.304 115.071 49.224V43.548C115.071 43.468 115.095 43.4 115.143 43.344C115.199 43.288 115.267 43.26 115.347 43.26H115.899C115.979 43.26 116.047 43.288 116.103 43.344C116.159 43.4 116.187 43.468 116.187 43.548V44.076C116.515 43.532 117.075 43.26 117.867 43.26H118.335C118.415 43.26 118.479 43.288 118.527 43.344C118.583 43.392 118.611 43.456 118.611 43.536V44.028C118.611 44.108 118.583 44.172 118.527 44.22C118.479 44.268 118.415 44.292 118.335 44.292H117.615C117.183 44.292 116.843 44.42 116.595 44.676C116.347 44.924 116.223 45.264 116.223 45.696V49.224C116.223 49.304 116.195 49.372 116.139 49.428C116.083 49.476 116.015 49.5 115.935 49.5H115.347ZM122.008 49.62C121.184 49.62 120.524 49.368 120.028 48.864C119.54 48.352 119.272 47.656 119.224 46.776L119.212 46.368L119.224 45.972C119.28 45.108 119.552 44.42 120.04 43.908C120.536 43.396 121.188 43.14 121.996 43.14C122.884 43.14 123.572 43.424 124.06 43.992C124.548 44.552 124.792 45.312 124.792 46.272V46.476C124.792 46.556 124.764 46.624 124.708 46.68C124.66 46.728 124.596 46.752 124.516 46.752H120.364V46.86C120.388 47.38 120.544 47.824 120.832 48.192C121.128 48.552 121.516 48.732 121.996 48.732C122.364 48.732 122.664 48.66 122.896 48.516C123.136 48.364 123.312 48.208 123.424 48.048C123.496 47.952 123.548 47.896 123.58 47.88C123.62 47.856 123.688 47.844 123.784 47.844H124.372C124.444 47.844 124.504 47.864 124.552 47.904C124.6 47.944 124.624 48 124.624 48.072C124.624 48.248 124.512 48.46 124.288 48.708C124.072 48.956 123.764 49.172 123.364 49.356C122.972 49.532 122.52 49.62 122.008 49.62ZM123.652 45.924V45.888C123.652 45.336 123.5 44.888 123.196 44.544C122.9 44.192 122.5 44.016 121.996 44.016C121.492 44.016 121.092 44.192 120.796 44.544C120.508 44.888 120.364 45.336 120.364 45.888V45.924H123.652ZM132.024 49.62C131.36 49.62 130.784 49.516 130.296 49.308C129.816 49.1 129.448 48.828 129.192 48.492C128.936 48.148 128.8 47.78 128.784 47.388C128.784 47.324 128.808 47.268 128.856 47.22C128.912 47.164 128.976 47.136 129.048 47.136H129.66C129.812 47.136 129.916 47.216 129.972 47.376C130.044 47.712 130.248 48 130.584 48.24C130.928 48.48 131.408 48.6 132.024 48.6C132.688 48.6 133.188 48.484 133.524 48.252C133.86 48.012 134.028 47.68 134.028 47.256C134.028 46.984 133.944 46.764 133.776 46.596C133.616 46.428 133.376 46.28 133.056 46.152C132.736 46.024 132.256 45.864 131.616 45.672C130.992 45.496 130.496 45.308 130.128 45.108C129.76 44.908 129.484 44.66 129.3 44.364C129.116 44.068 129.024 43.696 129.024 43.248C129.024 42.816 129.14 42.428 129.372 42.084C129.612 41.74 129.952 41.472 130.392 41.28C130.832 41.08 131.356 40.98 131.964 40.98C132.588 40.98 133.124 41.092 133.572 41.316C134.02 41.532 134.36 41.808 134.592 42.144C134.824 42.48 134.948 42.816 134.964 43.152C134.964 43.216 134.94 43.272 134.892 43.32C134.852 43.368 134.792 43.392 134.712 43.392H134.076C133.908 43.392 133.804 43.316 133.764 43.164C133.716 42.828 133.528 42.552 133.2 42.336C132.872 42.112 132.46 42 131.964 42C131.42 42 130.992 42.104 130.68 42.312C130.368 42.52 130.212 42.828 130.212 43.236C130.212 43.508 130.284 43.732 130.428 43.908C130.58 44.084 130.808 44.24 131.112 44.376C131.416 44.504 131.86 44.652 132.444 44.82C133.124 45.004 133.66 45.196 134.052 45.396C134.444 45.588 134.736 45.832 134.928 46.128C135.12 46.416 135.216 46.784 135.216 47.232C135.216 47.976 134.928 48.56 134.352 48.984C133.776 49.408 133 49.62 132.024 49.62ZM139.189 49.62C138.309 49.62 137.625 49.372 137.137 48.876C136.657 48.38 136.401 47.72 136.369 46.896L136.357 46.38L136.369 45.864C136.401 45.048 136.661 44.392 137.149 43.896C137.637 43.392 138.317 43.14 139.189 43.14C140.061 43.14 140.741 43.392 141.229 43.896C141.717 44.392 141.977 45.048 142.009 45.864C142.017 45.952 142.021 46.124 142.021 46.38C142.021 46.636 142.017 46.808 142.009 46.896C141.977 47.72 141.717 48.38 141.229 48.876C140.749 49.372 140.069 49.62 139.189 49.62ZM139.189 48.696C139.693 48.696 140.089 48.536 140.377 48.216C140.673 47.896 140.833 47.436 140.857 46.836C140.865 46.756 140.869 46.604 140.869 46.38C140.869 46.156 140.865 46.004 140.857 45.924C140.833 45.324 140.673 44.864 140.377 44.544C140.089 44.224 139.693 44.064 139.189 44.064C138.685 44.064 138.285 44.224 137.989 44.544C137.693 44.864 137.537 45.324 137.521 45.924L137.509 46.38L137.521 46.836C137.537 47.436 137.693 47.896 137.989 48.216C138.285 48.536 138.685 48.696 139.189 48.696ZM143.812 49.5C143.732 49.5 143.664 49.476 143.608 49.428C143.56 49.372 143.536 49.304 143.536 49.224V41.256C143.536 41.176 143.56 41.112 143.608 41.064C143.664 41.008 143.732 40.98 143.812 40.98H144.376C144.456 40.98 144.52 41.008 144.568 41.064C144.624 41.112 144.652 41.176 144.652 41.256V49.224C144.652 49.304 144.624 49.372 144.568 49.428C144.52 49.476 144.456 49.5 144.376 49.5H143.812ZM148.77 49.62C148.01 49.62 147.422 49.376 147.006 48.888C146.59 48.392 146.382 47.736 146.382 46.92V43.536C146.382 43.456 146.406 43.392 146.454 43.344C146.51 43.288 146.578 43.26 146.658 43.26H147.258C147.338 43.26 147.402 43.288 147.45 43.344C147.506 43.392 147.534 43.456 147.534 43.536V46.86C147.534 48.052 148.054 48.648 149.094 48.648C149.598 48.648 149.998 48.492 150.294 48.18C150.59 47.86 150.738 47.42 150.738 46.86V43.536C150.738 43.456 150.762 43.392 150.81 43.344C150.866 43.288 150.934 43.26 151.014 43.26H151.614C151.694 43.26 151.758 43.288 151.806 43.344C151.854 43.392 151.878 43.456 151.878 43.536V49.224C151.878 49.304 151.854 49.372 151.806 49.428C151.758 49.476 151.694 49.5 151.614 49.5H151.05C150.97 49.5 150.902 49.476 150.846 49.428C150.798 49.372 150.774 49.304 150.774 49.224V48.696C150.55 49 150.278 49.232 149.958 49.392C149.638 49.544 149.242 49.62 148.77 49.62ZM156.096 49.5C154.832 49.5 154.2 48.796 154.2 47.388V44.22H153.264C153.184 44.22 153.116 44.196 153.06 44.148C153.012 44.092 152.988 44.024 152.988 43.944V43.536C152.988 43.456 153.012 43.392 153.06 43.344C153.116 43.288 153.184 43.26 153.264 43.26H154.2V41.256C154.2 41.176 154.224 41.112 154.272 41.064C154.328 41.008 154.396 40.98 154.476 40.98H155.04C155.12 40.98 155.184 41.008 155.232 41.064C155.288 41.112 155.316 41.176 155.316 41.256V43.26H156.804C156.884 43.26 156.948 43.288 156.996 43.344C157.052 43.392 157.08 43.456 157.08 43.536V43.944C157.08 44.024 157.052 44.092 156.996 44.148C156.948 44.196 156.884 44.22 156.804 44.22H155.316V47.304C155.316 47.704 155.384 48.008 155.52 48.216C155.656 48.416 155.88 48.516 156.192 48.516H156.924C157.004 48.516 157.068 48.544 157.116 48.6C157.172 48.648 157.2 48.712 157.2 48.792V49.224C157.2 49.304 157.172 49.372 157.116 49.428C157.068 49.476 157.004 49.5 156.924 49.5H156.096ZM158.528 42.096C158.448 42.096 158.38 42.072 158.324 42.024C158.276 41.968 158.252 41.9 158.252 41.82V41.172C158.252 41.092 158.276 41.024 158.324 40.968C158.38 40.912 158.448 40.884 158.528 40.884H159.284C159.364 40.884 159.432 40.912 159.488 40.968C159.544 41.024 159.572 41.092 159.572 41.172V41.82C159.572 41.9 159.544 41.968 159.488 42.024C159.432 42.072 159.364 42.096 159.284 42.096H158.528ZM158.624 49.5C158.544 49.5 158.476 49.476 158.42 49.428C158.372 49.372 158.348 49.304 158.348 49.224V43.536C158.348 43.456 158.372 43.392 158.42 43.344C158.476 43.288 158.544 43.26 158.624 43.26H159.2C159.28 43.26 159.344 43.288 159.392 43.344C159.448 43.392 159.476 43.456 159.476 43.536V49.224C159.476 49.304 159.448 49.372 159.392 49.428C159.344 49.476 159.28 49.5 159.2 49.5H158.624ZM163.81 49.62C162.93 49.62 162.246 49.372 161.758 48.876C161.278 48.38 161.022 47.72 160.99 46.896L160.978 46.38L160.99 45.864C161.022 45.048 161.282 44.392 161.77 43.896C162.258 43.392 162.938 43.14 163.81 43.14C164.682 43.14 165.362 43.392 165.85 43.896C166.338 44.392 166.598 45.048 166.63 45.864C166.638 45.952 166.642 46.124 166.642 46.38C166.642 46.636 166.638 46.808 166.63 46.896C166.598 47.72 166.338 48.38 165.85 48.876C165.37 49.372 164.69 49.62 163.81 49.62ZM163.81 48.696C164.314 48.696 164.71 48.536 164.998 48.216C165.294 47.896 165.454 47.436 165.478 46.836C165.486 46.756 165.49 46.604 165.49 46.38C165.49 46.156 165.486 46.004 165.478 45.924C165.454 45.324 165.294 44.864 164.998 44.544C164.71 44.224 164.314 44.064 163.81 44.064C163.306 44.064 162.906 44.224 162.61 44.544C162.314 44.864 162.158 45.324 162.142 45.924L162.13 46.38L162.142 46.836C162.158 47.436 162.314 47.896 162.61 48.216C162.906 48.536 163.306 48.696 163.81 48.696ZM168.421 49.5C168.341 49.5 168.273 49.476 168.217 49.428C168.169 49.372 168.145 49.304 168.145 49.224V43.536C168.145 43.456 168.169 43.392 168.217 43.344C168.273 43.288 168.341 43.26 168.421 43.26H168.985C169.065 43.26 169.129 43.288 169.177 43.344C169.233 43.392 169.261 43.456 169.261 43.536V44.064C169.493 43.768 169.765 43.54 170.077 43.38C170.397 43.22 170.793 43.14 171.265 43.14C172.033 43.14 172.629 43.388 173.053 43.884C173.485 44.372 173.701 45.024 173.701 45.84V49.224C173.701 49.304 173.673 49.372 173.617 49.428C173.569 49.476 173.505 49.5 173.425 49.5H172.825C172.745 49.5 172.677 49.476 172.621 49.428C172.573 49.372 172.549 49.304 172.549 49.224V45.9C172.549 45.332 172.409 44.892 172.129 44.58C171.857 44.268 171.461 44.112 170.941 44.112C170.437 44.112 170.037 44.272 169.741 44.592C169.445 44.904 169.297 45.34 169.297 45.9V49.224C169.297 49.304 169.269 49.372 169.213 49.428C169.165 49.476 169.101 49.5 169.021 49.5H168.421ZM177.582 49.62C177.022 49.62 176.55 49.532 176.166 49.356C175.79 49.172 175.506 48.964 175.314 48.732C175.13 48.5 175.038 48.308 175.038 48.156C175.038 48.076 175.066 48.016 175.122 47.976C175.186 47.928 175.25 47.904 175.314 47.904H175.854C175.934 47.904 176.006 47.944 176.07 48.024C176.262 48.248 176.47 48.424 176.694 48.552C176.918 48.68 177.218 48.744 177.594 48.744C178.01 48.744 178.346 48.664 178.602 48.504C178.866 48.336 178.998 48.108 178.998 47.82C178.998 47.628 178.942 47.472 178.83 47.352C178.726 47.224 178.542 47.116 178.278 47.028C178.022 46.932 177.638 46.828 177.126 46.716C176.43 46.564 175.934 46.344 175.638 46.056C175.35 45.768 175.206 45.396 175.206 44.94C175.206 44.636 175.294 44.348 175.47 44.076C175.654 43.796 175.918 43.572 176.262 43.404C176.614 43.228 177.034 43.14 177.522 43.14C178.034 43.14 178.47 43.224 178.83 43.392C179.19 43.56 179.458 43.76 179.634 43.992C179.818 44.216 179.91 44.404 179.91 44.556C179.91 44.628 179.882 44.688 179.826 44.736C179.778 44.784 179.718 44.808 179.646 44.808H179.142C179.046 44.808 178.966 44.768 178.902 44.688C178.774 44.536 178.662 44.42 178.566 44.34C178.478 44.252 178.346 44.176 178.17 44.112C178.002 44.048 177.786 44.016 177.522 44.016C177.138 44.016 176.842 44.1 176.634 44.268C176.426 44.428 176.322 44.64 176.322 44.904C176.322 45.072 176.366 45.216 176.454 45.336C176.542 45.448 176.71 45.552 176.958 45.648C177.214 45.744 177.582 45.844 178.062 45.948C178.822 46.108 179.358 46.34 179.67 46.644C179.99 46.94 180.15 47.32 180.15 47.784C180.15 48.128 180.05 48.44 179.85 48.72C179.65 49 179.354 49.22 178.962 49.38C178.578 49.54 178.118 49.62 177.582 49.62Z" fill="white"/>
</svg>
