<svg width="216" height="61" viewBox="0 0 216 61" fill="none" xmlns="http://www.w3.org/2000/svg">
<path d="M50.9646 55.6172L59.4619 48.4349L32.5634 2.84119L6.43119 48.4349L15.4085 55.6172L38.5217 12.935L34.6044 29.227L50.9646 55.6172Z" fill="#8479E1"/>
<path d="M46.5112 48.4349H18.7945L15.4085 55.6171L46.5112 48.4349Z" fill="#8479E1"/>
<path d="M32.5634 30.0065L42.4717 46.2416H23.483L32.5634 30.0065Z" fill="#8479E1"/>
<path d="M38.5217 12.935L32.9441 26.6413L50.9646 55.6172L59.4619 48.4349L38.5217 12.935Z" fill="#8479E1"/>
<path d="M75.3263 24.5417C75.2196 24.5417 75.1263 24.5017 75.0463 24.4217C74.9663 24.3417 74.9263 24.2484 74.9263 24.1417C74.9263 24.075 74.933 24.0017 74.9463 23.9217L79.9063 10.9817C79.9596 10.8484 80.033 10.7417 80.1263 10.6617C80.2196 10.5817 80.3596 10.5417 80.5463 10.5417H81.9063C82.0796 10.5417 82.213 10.5817 82.3063 10.6617C82.413 10.7417 82.493 10.8484 82.5463 10.9817L87.4863 23.9217C87.513 24.0017 87.5263 24.075 87.5263 24.1417C87.5263 24.2484 87.4863 24.3417 87.4063 24.4217C87.3263 24.5017 87.233 24.5417 87.1263 24.5417H86.1063C85.9463 24.5417 85.8263 24.5017 85.7463 24.4217C85.6796 24.3417 85.633 24.2684 85.6063 24.2017L84.5063 21.3617H77.9463L76.8463 24.2017C76.833 24.2684 76.7863 24.3417 76.7063 24.4217C76.6263 24.5017 76.5063 24.5417 76.3463 24.5417H75.3263ZM78.5263 19.6417H83.9263L81.2263 12.5417L78.5263 19.6417ZM95.5694 24.7417C94.4094 24.7417 93.4361 24.5684 92.6494 24.2217C91.8628 23.8617 91.2561 23.4017 90.8294 22.8417C90.4161 22.2684 90.1961 21.6617 90.1694 21.0217C90.1694 20.915 90.2094 20.8217 90.2894 20.7417C90.3828 20.6484 90.4894 20.6017 90.6094 20.6017H91.6294C91.7894 20.6017 91.9094 20.6417 91.9894 20.7217C92.0694 20.8017 92.1228 20.895 92.1494 21.0017C92.2161 21.3217 92.3761 21.6417 92.6294 21.9617C92.8961 22.2684 93.2628 22.5284 93.7294 22.7417C94.2094 22.9417 94.8228 23.0417 95.5694 23.0417C96.7161 23.0417 97.5561 22.8417 98.0894 22.4417C98.6361 22.0284 98.9094 21.4817 98.9094 20.8017C98.9094 20.335 98.7628 19.9617 98.4694 19.6817C98.1894 19.3884 97.7561 19.1284 97.1694 18.9017C96.5828 18.675 95.8228 18.4284 94.8894 18.1617C93.9161 17.8817 93.1094 17.575 92.4694 17.2417C91.8294 16.9084 91.3494 16.495 91.0294 16.0017C90.7228 15.5084 90.5694 14.8817 90.5694 14.1217C90.5694 13.4017 90.7628 12.7617 91.1494 12.2017C91.5361 11.6284 92.0894 11.175 92.8094 10.8417C93.5428 10.5084 94.4294 10.3417 95.4694 10.3417C96.2961 10.3417 97.0161 10.455 97.6294 10.6817C98.2561 10.895 98.7761 11.1884 99.1894 11.5617C99.6028 11.9217 99.9161 12.315 100.129 12.7417C100.343 13.155 100.456 13.5617 100.469 13.9617C100.469 14.055 100.436 14.1484 100.369 14.2417C100.303 14.3217 100.196 14.3617 100.049 14.3617H98.9894C98.8961 14.3617 98.7961 14.335 98.6894 14.2817C98.5961 14.2284 98.5228 14.1284 98.4694 13.9817C98.3894 13.435 98.0828 12.975 97.5494 12.6017C97.0161 12.2284 96.3228 12.0417 95.4694 12.0417C94.6028 12.0417 93.8961 12.2084 93.3494 12.5417C92.8161 12.875 92.5494 13.395 92.5494 14.1017C92.5494 14.555 92.6761 14.935 92.9294 15.2417C93.1828 15.535 93.5828 15.795 94.1294 16.0217C94.6761 16.2484 95.3894 16.4884 96.2694 16.7417C97.3361 17.035 98.2094 17.3484 98.8894 17.6817C99.5694 18.0017 100.069 18.4084 100.389 18.9017C100.723 19.3817 100.889 20.0017 100.889 20.7617C100.889 21.6017 100.669 22.3217 100.229 22.9217C99.7894 23.5084 99.1694 23.9617 98.3694 24.2817C97.5828 24.5884 96.6494 24.7417 95.5694 24.7417ZM105.571 24.5417C105.424 24.5417 105.311 24.5017 105.231 24.4217C105.151 24.3284 105.111 24.215 105.111 24.0817V11.0217C105.111 10.875 105.151 10.7617 105.231 10.6817C105.311 10.5884 105.424 10.5417 105.571 10.5417H110.651C111.638 10.5417 112.491 10.7017 113.211 11.0217C113.944 11.3417 114.511 11.8217 114.911 12.4617C115.311 13.0884 115.511 13.875 115.511 14.8217C115.511 15.7684 115.311 16.555 114.911 17.1817C114.511 17.8084 113.944 18.2817 113.211 18.6017C112.491 18.9217 111.638 19.0817 110.651 19.0817H107.111V24.0817C107.111 24.215 107.064 24.3284 106.971 24.4217C106.891 24.5017 106.778 24.5417 106.631 24.5417H105.571ZM107.091 17.4017H110.551C111.538 17.4017 112.278 17.1817 112.771 16.7417C113.264 16.3017 113.511 15.6617 113.511 14.8217C113.511 13.995 113.271 13.355 112.791 12.9017C112.311 12.4484 111.564 12.2217 110.551 12.2217H107.091V17.4017ZM120.003 24.5417C119.856 24.5417 119.743 24.5017 119.663 24.4217C119.583 24.3284 119.543 24.215 119.543 24.0817V11.0017C119.543 10.8684 119.583 10.7617 119.663 10.6817C119.743 10.5884 119.856 10.5417 120.003 10.5417H121.063C121.196 10.5417 121.303 10.5884 121.383 10.6817C121.476 10.7617 121.523 10.8684 121.523 11.0017V24.0817C121.523 24.215 121.476 24.3284 121.383 24.4217C121.303 24.5017 121.196 24.5417 121.063 24.5417H120.003ZM125.672 24.5417C125.565 24.5417 125.472 24.5017 125.392 24.4217C125.312 24.3417 125.272 24.2484 125.272 24.1417C125.272 24.075 125.278 24.0017 125.292 23.9217L130.252 10.9817C130.305 10.8484 130.378 10.7417 130.472 10.6617C130.565 10.5817 130.705 10.5417 130.892 10.5417H132.252C132.425 10.5417 132.558 10.5817 132.652 10.6617C132.758 10.7417 132.838 10.8484 132.892 10.9817L137.832 23.9217C137.858 24.0017 137.872 24.075 137.872 24.1417C137.872 24.2484 137.832 24.3417 137.752 24.4217C137.672 24.5017 137.578 24.5417 137.472 24.5417H136.452C136.292 24.5417 136.172 24.5017 136.092 24.4217C136.025 24.3417 135.978 24.2684 135.952 24.2017L134.852 21.3617H128.292L127.192 24.2017C127.178 24.2684 127.132 24.3417 127.052 24.4217C126.972 24.5017 126.852 24.5417 126.692 24.5417H125.672ZM128.872 19.6417H134.272L131.572 12.5417L128.872 19.6417ZM142.07 24.5417C141.923 24.5417 141.81 24.5017 141.73 24.4217C141.65 24.3284 141.61 24.215 141.61 24.0817V11.0217C141.61 10.875 141.65 10.7617 141.73 10.6817C141.81 10.5884 141.923 10.5417 142.07 10.5417H142.99C143.15 10.5417 143.27 10.5817 143.35 10.6617C143.43 10.7284 143.477 10.7817 143.49 10.8217L150.13 21.0217V11.0217C150.13 10.875 150.17 10.7617 150.25 10.6817C150.33 10.5884 150.443 10.5417 150.59 10.5417H151.55C151.697 10.5417 151.81 10.5884 151.89 10.6817C151.983 10.7617 152.03 10.875 152.03 11.0217V24.0617C152.03 24.195 151.983 24.3084 151.89 24.4017C151.81 24.495 151.703 24.5417 151.57 24.5417H150.61C150.463 24.5417 150.35 24.5017 150.27 24.4217C150.203 24.3417 150.157 24.2884 150.13 24.2617L143.51 14.1617V24.0817C143.51 24.215 143.463 24.3284 143.37 24.4217C143.29 24.5017 143.177 24.5417 143.03 24.5417H142.07ZM157.557 24.5417C157.41 24.5417 157.297 24.5017 157.217 24.4217C157.137 24.3284 157.097 24.215 157.097 24.0817V11.0217C157.097 10.875 157.137 10.7617 157.217 10.6817C157.297 10.5884 157.41 10.5417 157.557 10.5417H165.817C165.963 10.5417 166.077 10.5884 166.157 10.6817C166.237 10.7617 166.277 10.875 166.277 11.0217V11.7817C166.277 11.9284 166.237 12.0417 166.157 12.1217C166.077 12.2017 165.963 12.2417 165.817 12.2417H159.017V16.6217H165.377C165.523 16.6217 165.637 16.6684 165.717 16.7617C165.797 16.8417 165.837 16.955 165.837 17.1017V17.8417C165.837 17.975 165.797 18.0884 165.717 18.1817C165.637 18.2617 165.523 18.3017 165.377 18.3017H159.017V22.8417H165.977C166.123 22.8417 166.237 22.8817 166.317 22.9617C166.397 23.0417 166.437 23.155 166.437 23.3017V24.0817C166.437 24.215 166.397 24.3284 166.317 24.4217C166.237 24.5017 166.123 24.5417 165.977 24.5417H157.557ZM174.346 24.5417C174.212 24.5417 174.099 24.5017 174.006 24.4217C173.926 24.3284 173.886 24.215 173.886 24.0817V12.3217H170.046C169.912 12.3217 169.799 12.2817 169.706 12.2017C169.626 12.1084 169.586 11.995 169.586 11.8617V11.0217C169.586 10.875 169.626 10.7617 169.706 10.6817C169.799 10.5884 169.912 10.5417 170.046 10.5417H179.686C179.832 10.5417 179.946 10.5884 180.026 10.6817C180.119 10.7617 180.166 10.875 180.166 11.0217V11.8617C180.166 11.995 180.119 12.1084 180.026 12.2017C179.946 12.2817 179.832 12.3217 179.686 12.3217H175.866V24.0817C175.866 24.215 175.819 24.3284 175.726 24.4217C175.646 24.5017 175.532 24.5417 175.386 24.5417H174.346Z" fill="#8479E1"/>
<path d="M78.2703 49.62C77.5743 49.62 76.9903 49.516 76.5183 49.308C76.0463 49.092 75.6823 48.816 75.4263 48.48C75.1783 48.136 75.0463 47.772 75.0303 47.388C75.0303 47.324 75.0543 47.268 75.1023 47.22C75.1583 47.164 75.2223 47.136 75.2943 47.136H75.9063C76.0023 47.136 76.0743 47.16 76.1223 47.208C76.1703 47.256 76.2023 47.312 76.2183 47.376C76.2583 47.568 76.3543 47.76 76.5063 47.952C76.6663 48.136 76.8863 48.292 77.1663 48.42C77.4543 48.54 77.8223 48.6 78.2703 48.6C78.9583 48.6 79.4623 48.48 79.7823 48.24C80.1103 47.992 80.2743 47.664 80.2743 47.256C80.2743 46.976 80.1863 46.752 80.0103 46.584C79.8423 46.408 79.5823 46.252 79.2303 46.116C78.8783 45.98 78.4223 45.832 77.8623 45.672C77.2783 45.504 76.7943 45.32 76.4103 45.12C76.0263 44.92 75.7383 44.672 75.5463 44.376C75.3623 44.08 75.2703 43.704 75.2703 43.248C75.2703 42.816 75.3863 42.432 75.6183 42.096C75.8503 41.752 76.1823 41.48 76.6143 41.28C77.0543 41.08 77.5863 40.98 78.2103 40.98C78.7063 40.98 79.1383 41.048 79.5063 41.184C79.8823 41.312 80.1943 41.488 80.4423 41.712C80.6903 41.928 80.8783 42.164 81.0063 42.42C81.1343 42.668 81.2023 42.912 81.2103 43.152C81.2103 43.208 81.1903 43.264 81.1503 43.32C81.1103 43.368 81.0463 43.392 80.9583 43.392H80.3223C80.2663 43.392 80.2063 43.376 80.1423 43.344C80.0863 43.312 80.0423 43.252 80.0103 43.164C79.9623 42.836 79.7783 42.56 79.4583 42.336C79.1383 42.112 78.7223 42 78.2103 42C77.6903 42 77.2663 42.1 76.9383 42.3C76.6183 42.5 76.4583 42.812 76.4583 43.236C76.4583 43.508 76.5343 43.736 76.6863 43.92C76.8383 44.096 77.0783 44.252 77.4063 44.388C77.7343 44.524 78.1623 44.668 78.6903 44.82C79.3303 44.996 79.8543 45.184 80.2623 45.384C80.6703 45.576 80.9703 45.82 81.1623 46.116C81.3623 46.404 81.4623 46.776 81.4623 47.232C81.4623 47.736 81.3303 48.168 81.0663 48.528C80.8023 48.88 80.4303 49.152 79.9503 49.344C79.4783 49.528 78.9183 49.62 78.2703 49.62ZM85.4351 49.62C84.8271 49.62 84.3192 49.504 83.9112 49.272C83.5031 49.04 83.1911 48.72 82.9751 48.312C82.7591 47.896 82.6391 47.424 82.6151 46.896C82.6071 46.76 82.6031 46.588 82.6031 46.38C82.6031 46.164 82.6071 45.992 82.6151 45.864C82.6391 45.328 82.7591 44.856 82.9751 44.448C83.1991 44.04 83.5152 43.72 83.9232 43.488C84.3312 43.256 84.8352 43.14 85.4351 43.14C86.0352 43.14 86.5392 43.256 86.9472 43.488C87.3552 43.72 87.6672 44.04 87.8832 44.448C88.1072 44.856 88.2312 45.328 88.2552 45.864C88.2631 45.992 88.2671 46.164 88.2671 46.38C88.2671 46.588 88.2631 46.76 88.2552 46.896C88.2312 47.424 88.1112 47.896 87.8952 48.312C87.6792 48.72 87.3672 49.04 86.9592 49.272C86.5512 49.504 86.0431 49.62 85.4351 49.62ZM85.4351 48.696C85.9311 48.696 86.3271 48.54 86.6231 48.228C86.9191 47.908 87.0792 47.444 87.1032 46.836C87.1112 46.716 87.1152 46.564 87.1152 46.38C87.1152 46.196 87.1112 46.044 87.1032 45.924C87.0792 45.316 86.9191 44.856 86.6231 44.544C86.3271 44.224 85.9311 44.064 85.4351 44.064C84.9391 44.064 84.5391 44.224 84.2351 44.544C83.9391 44.856 83.7831 45.316 83.7671 45.924C83.7591 46.044 83.7551 46.196 83.7551 46.38C83.7551 46.564 83.7591 46.716 83.7671 46.836C83.7831 47.444 83.9391 47.908 84.2351 48.228C84.5391 48.54 84.9391 48.696 85.4351 48.696ZM90.5995 49.5C90.5195 49.5 90.4515 49.476 90.3955 49.428C90.3475 49.372 90.3235 49.304 90.3235 49.224V44.22H89.3035C89.2235 44.22 89.1555 44.196 89.0995 44.148C89.0515 44.092 89.0275 44.024 89.0275 43.944V43.536C89.0275 43.456 89.0515 43.392 89.0995 43.344C89.1555 43.288 89.2235 43.26 89.3035 43.26H90.3235V42.66C90.3235 42.252 90.3915 41.896 90.5275 41.592C90.6635 41.28 90.8795 41.04 91.1755 40.872C91.4795 40.704 91.8835 40.62 92.3875 40.62H93.1075C93.1875 40.62 93.2515 40.648 93.2995 40.704C93.3475 40.752 93.3715 40.816 93.3715 40.896V41.304C93.3715 41.384 93.3475 41.452 93.2995 41.508C93.2515 41.556 93.1875 41.58 93.1075 41.58H92.4115C92.0355 41.58 91.7795 41.68 91.6435 41.88C91.5075 42.072 91.4395 42.352 91.4395 42.72V43.26H92.9875C93.0675 43.26 93.1315 43.288 93.1795 43.344C93.2275 43.392 93.2515 43.456 93.2515 43.536V43.944C93.2515 44.024 93.2275 44.092 93.1795 44.148C93.1315 44.196 93.0675 44.22 92.9875 44.22H91.4395V49.224C91.4395 49.304 91.4115 49.372 91.3555 49.428C91.3075 49.476 91.2435 49.5 91.1635 49.5H90.5995ZM96.7527 49.5C96.3047 49.5 95.9407 49.416 95.6606 49.248C95.3806 49.072 95.1766 48.828 95.0486 48.516C94.9206 48.196 94.8566 47.82 94.8566 47.388V44.22H93.9206C93.8406 44.22 93.7726 44.196 93.7166 44.148C93.6686 44.092 93.6446 44.024 93.6446 43.944V43.536C93.6446 43.456 93.6686 43.392 93.7166 43.344C93.7726 43.288 93.8406 43.26 93.9206 43.26H94.8566V41.256C94.8566 41.176 94.8806 41.112 94.9286 41.064C94.9846 41.008 95.0526 40.98 95.1326 40.98H95.6967C95.7767 40.98 95.8407 41.008 95.8887 41.064C95.9447 41.112 95.9727 41.176 95.9727 41.256V43.26H97.4607C97.5407 43.26 97.6047 43.288 97.6527 43.344C97.7087 43.392 97.7367 43.456 97.7367 43.536V43.944C97.7367 44.024 97.7087 44.092 97.6527 44.148C97.6047 44.196 97.5407 44.22 97.4607 44.22H95.9727V47.304C95.9727 47.68 96.0367 47.976 96.1647 48.192C96.2927 48.408 96.5207 48.516 96.8487 48.516H97.5807C97.6607 48.516 97.7247 48.544 97.7727 48.6C97.8287 48.648 97.8567 48.712 97.8567 48.792V49.224C97.8567 49.304 97.8287 49.372 97.7727 49.428C97.7247 49.476 97.6607 49.5 97.5807 49.5H96.7527ZM100.66 49.5C100.556 49.5 100.476 49.476 100.42 49.428C100.364 49.372 100.316 49.296 100.276 49.2L98.5721 43.632C98.5561 43.592 98.5481 43.552 98.5481 43.512C98.5481 43.44 98.5721 43.38 98.6201 43.332C98.6761 43.284 98.7361 43.26 98.8001 43.26H99.3281C99.4161 43.26 99.4841 43.284 99.5322 43.332C99.5801 43.38 99.6121 43.424 99.6281 43.464L100.96 47.988L102.388 43.512C102.404 43.456 102.436 43.4 102.484 43.344C102.54 43.288 102.62 43.26 102.724 43.26H103.132C103.236 43.26 103.316 43.288 103.372 43.344C103.428 43.4 103.46 43.456 103.468 43.512L104.896 47.988L106.228 43.464C106.236 43.424 106.264 43.38 106.312 43.332C106.36 43.284 106.428 43.26 106.516 43.26H107.044C107.116 43.26 107.176 43.284 107.224 43.332C107.272 43.38 107.296 43.44 107.296 43.512C107.296 43.552 107.288 43.592 107.272 43.632L105.568 49.2C105.544 49.296 105.5 49.372 105.436 49.428C105.38 49.476 105.296 49.5 105.184 49.5H104.716C104.612 49.5 104.524 49.476 104.452 49.428C104.388 49.372 104.344 49.296 104.32 49.2L102.928 44.904L101.536 49.2C101.504 49.296 101.456 49.372 101.392 49.428C101.328 49.476 101.24 49.5 101.128 49.5H100.66ZM110.189 49.62C109.789 49.62 109.425 49.54 109.097 49.38C108.769 49.22 108.505 49.004 108.305 48.732C108.105 48.46 108.005 48.152 108.005 47.808C108.005 47.256 108.229 46.816 108.677 46.488C109.125 46.16 109.709 45.944 110.429 45.84L112.217 45.588V45.24C112.217 44.856 112.105 44.556 111.881 44.34C111.665 44.124 111.309 44.016 110.813 44.016C110.453 44.016 110.161 44.088 109.937 44.232C109.721 44.376 109.569 44.56 109.481 44.784C109.433 44.904 109.349 44.964 109.229 44.964H108.689C108.601 44.964 108.533 44.94 108.485 44.892C108.445 44.836 108.425 44.772 108.425 44.7C108.425 44.58 108.469 44.432 108.557 44.256C108.653 44.08 108.797 43.908 108.989 43.74C109.181 43.572 109.425 43.432 109.721 43.32C110.025 43.2 110.393 43.14 110.825 43.14C111.305 43.14 111.709 43.204 112.037 43.332C112.365 43.452 112.621 43.616 112.805 43.824C112.997 44.032 113.133 44.268 113.213 44.532C113.301 44.796 113.345 45.064 113.345 45.336V49.224C113.345 49.304 113.317 49.372 113.261 49.428C113.213 49.476 113.149 49.5 113.069 49.5H112.517C112.429 49.5 112.361 49.476 112.313 49.428C112.265 49.372 112.241 49.304 112.241 49.224V48.708C112.137 48.852 111.997 48.996 111.821 49.14C111.645 49.276 111.425 49.392 111.161 49.488C110.897 49.576 110.573 49.62 110.189 49.62ZM110.441 48.72C110.769 48.72 111.069 48.652 111.341 48.516C111.613 48.372 111.825 48.152 111.977 47.856C112.137 47.56 112.217 47.188 112.217 46.74V46.404L110.825 46.608C110.257 46.688 109.829 46.824 109.541 47.016C109.253 47.2 109.109 47.436 109.109 47.724C109.109 47.948 109.173 48.136 109.301 48.288C109.437 48.432 109.605 48.54 109.805 48.612C110.013 48.684 110.225 48.72 110.441 48.72ZM115.347 49.5C115.267 49.5 115.199 49.476 115.143 49.428C115.095 49.372 115.071 49.304 115.071 49.224V43.548C115.071 43.468 115.095 43.4 115.143 43.344C115.199 43.288 115.267 43.26 115.347 43.26H115.899C115.979 43.26 116.047 43.288 116.103 43.344C116.159 43.4 116.187 43.468 116.187 43.548V44.076C116.347 43.804 116.567 43.6 116.847 43.464C117.127 43.328 117.463 43.26 117.855 43.26H118.335C118.415 43.26 118.479 43.288 118.527 43.344C118.575 43.392 118.599 43.456 118.599 43.536V44.028C118.599 44.108 118.575 44.172 118.527 44.22C118.479 44.268 118.415 44.292 118.335 44.292H117.615C117.183 44.292 116.843 44.42 116.595 44.676C116.347 44.924 116.223 45.264 116.223 45.696V49.224C116.223 49.304 116.195 49.372 116.139 49.428C116.083 49.476 116.015 49.5 115.935 49.5H115.347ZM121.996 49.62C121.172 49.62 120.516 49.368 120.028 48.864C119.54 48.352 119.272 47.656 119.224 46.776C119.216 46.672 119.212 46.54 119.212 46.38C119.212 46.212 119.216 46.076 119.224 45.972C119.256 45.404 119.388 44.908 119.62 44.484C119.852 44.052 120.168 43.72 120.568 43.488C120.976 43.256 121.452 43.14 121.996 43.14C122.604 43.14 123.112 43.268 123.52 43.524C123.936 43.78 124.252 44.144 124.468 44.616C124.684 45.088 124.792 45.64 124.792 46.272V46.476C124.792 46.564 124.764 46.632 124.708 46.68C124.66 46.728 124.596 46.752 124.516 46.752H120.364C120.364 46.76 120.364 46.776 120.364 46.8C120.364 46.824 120.364 46.844 120.364 46.86C120.38 47.188 120.452 47.496 120.58 47.784C120.708 48.064 120.892 48.292 121.132 48.468C121.372 48.644 121.66 48.732 121.996 48.732C122.284 48.732 122.524 48.688 122.716 48.6C122.908 48.512 123.064 48.416 123.184 48.312C123.304 48.2 123.384 48.116 123.424 48.06C123.496 47.956 123.552 47.896 123.592 47.88C123.632 47.856 123.696 47.844 123.784 47.844H124.36C124.44 47.844 124.504 47.868 124.552 47.916C124.608 47.956 124.632 48.016 124.624 48.096C124.616 48.216 124.552 48.364 124.432 48.54C124.312 48.708 124.14 48.876 123.916 49.044C123.692 49.212 123.42 49.352 123.1 49.464C122.78 49.568 122.412 49.62 121.996 49.62ZM120.364 45.924H123.652V45.888C123.652 45.528 123.584 45.208 123.448 44.928C123.32 44.648 123.132 44.428 122.884 44.268C122.636 44.1 122.34 44.016 121.996 44.016C121.652 44.016 121.356 44.1 121.108 44.268C120.868 44.428 120.684 44.648 120.556 44.928C120.428 45.208 120.364 45.528 120.364 45.888V45.924ZM132.024 49.62C131.328 49.62 130.744 49.516 130.272 49.308C129.8 49.092 129.436 48.816 129.18 48.48C128.932 48.136 128.8 47.772 128.784 47.388C128.784 47.324 128.808 47.268 128.856 47.22C128.912 47.164 128.976 47.136 129.048 47.136H129.66C129.756 47.136 129.828 47.16 129.876 47.208C129.924 47.256 129.956 47.312 129.972 47.376C130.012 47.568 130.108 47.76 130.26 47.952C130.42 48.136 130.64 48.292 130.92 48.42C131.208 48.54 131.576 48.6 132.024 48.6C132.712 48.6 133.216 48.48 133.536 48.24C133.864 47.992 134.028 47.664 134.028 47.256C134.028 46.976 133.94 46.752 133.764 46.584C133.596 46.408 133.336 46.252 132.984 46.116C132.632 45.98 132.176 45.832 131.616 45.672C131.032 45.504 130.548 45.32 130.164 45.12C129.78 44.92 129.492 44.672 129.3 44.376C129.116 44.08 129.024 43.704 129.024 43.248C129.024 42.816 129.14 42.432 129.372 42.096C129.604 41.752 129.936 41.48 130.368 41.28C130.808 41.08 131.34 40.98 131.964 40.98C132.46 40.98 132.892 41.048 133.26 41.184C133.636 41.312 133.948 41.488 134.196 41.712C134.444 41.928 134.632 42.164 134.76 42.42C134.888 42.668 134.956 42.912 134.964 43.152C134.964 43.208 134.944 43.264 134.904 43.32C134.864 43.368 134.8 43.392 134.712 43.392H134.076C134.02 43.392 133.96 43.376 133.896 43.344C133.84 43.312 133.796 43.252 133.764 43.164C133.716 42.836 133.532 42.56 133.212 42.336C132.892 42.112 132.476 42 131.964 42C131.444 42 131.02 42.1 130.692 42.3C130.372 42.5 130.212 42.812 130.212 43.236C130.212 43.508 130.288 43.736 130.44 43.92C130.592 44.096 130.832 44.252 131.16 44.388C131.488 44.524 131.916 44.668 132.444 44.82C133.084 44.996 133.608 45.184 134.016 45.384C134.424 45.576 134.724 45.82 134.916 46.116C135.116 46.404 135.216 46.776 135.216 47.232C135.216 47.736 135.084 48.168 134.82 48.528C134.556 48.88 134.184 49.152 133.704 49.344C133.232 49.528 132.672 49.62 132.024 49.62ZM139.189 49.62C138.581 49.62 138.073 49.504 137.665 49.272C137.257 49.04 136.945 48.72 136.729 48.312C136.513 47.896 136.393 47.424 136.369 46.896C136.361 46.76 136.357 46.588 136.357 46.38C136.357 46.164 136.361 45.992 136.369 45.864C136.393 45.328 136.513 44.856 136.729 44.448C136.953 44.04 137.269 43.72 137.677 43.488C138.085 43.256 138.589 43.14 139.189 43.14C139.789 43.14 140.293 43.256 140.701 43.488C141.109 43.72 141.421 44.04 141.637 44.448C141.861 44.856 141.985 45.328 142.009 45.864C142.017 45.992 142.021 46.164 142.021 46.38C142.021 46.588 142.017 46.76 142.009 46.896C141.985 47.424 141.865 47.896 141.649 48.312C141.433 48.72 141.121 49.04 140.713 49.272C140.305 49.504 139.797 49.62 139.189 49.62ZM139.189 48.696C139.685 48.696 140.081 48.54 140.377 48.228C140.673 47.908 140.833 47.444 140.857 46.836C140.865 46.716 140.869 46.564 140.869 46.38C140.869 46.196 140.865 46.044 140.857 45.924C140.833 45.316 140.673 44.856 140.377 44.544C140.081 44.224 139.685 44.064 139.189 44.064C138.693 44.064 138.293 44.224 137.989 44.544C137.693 44.856 137.537 45.316 137.521 45.924C137.513 46.044 137.509 46.196 137.509 46.38C137.509 46.564 137.513 46.716 137.521 46.836C137.537 47.444 137.693 47.908 137.989 48.228C138.293 48.54 138.693 48.696 139.189 48.696ZM143.812 49.5C143.732 49.5 143.664 49.476 143.608 49.428C143.56 49.372 143.536 49.304 143.536 49.224V41.256C143.536 41.176 143.56 41.112 143.608 41.064C143.664 41.008 143.732 40.98 143.812 40.98H144.376C144.464 40.98 144.532 41.008 144.58 41.064C144.628 41.112 144.652 41.176 144.652 41.256V49.224C144.652 49.304 144.628 49.372 144.58 49.428C144.532 49.476 144.464 49.5 144.376 49.5H143.812ZM148.77 49.62C148.258 49.62 147.822 49.508 147.462 49.284C147.11 49.052 146.842 48.732 146.658 48.324C146.474 47.916 146.382 47.448 146.382 46.92V43.536C146.382 43.456 146.406 43.392 146.454 43.344C146.51 43.288 146.578 43.26 146.658 43.26H147.258C147.338 43.26 147.402 43.288 147.45 43.344C147.506 43.392 147.534 43.456 147.534 43.536V46.86C147.534 48.052 148.054 48.648 149.094 48.648C149.59 48.648 149.986 48.492 150.282 48.18C150.586 47.86 150.738 47.42 150.738 46.86V43.536C150.738 43.456 150.762 43.392 150.81 43.344C150.866 43.288 150.934 43.26 151.014 43.26H151.602C151.69 43.26 151.758 43.288 151.806 43.344C151.854 43.392 151.878 43.456 151.878 43.536V49.224C151.878 49.304 151.854 49.372 151.806 49.428C151.758 49.476 151.69 49.5 151.602 49.5H151.05C150.97 49.5 150.902 49.476 150.846 49.428C150.798 49.372 150.774 49.304 150.774 49.224V48.696C150.558 48.976 150.294 49.2 149.982 49.368C149.678 49.536 149.274 49.62 148.77 49.62ZM156.096 49.5C155.648 49.5 155.284 49.416 155.004 49.248C154.724 49.072 154.52 48.828 154.392 48.516C154.264 48.196 154.2 47.82 154.2 47.388V44.22H153.264C153.184 44.22 153.116 44.196 153.06 44.148C153.012 44.092 152.988 44.024 152.988 43.944V43.536C152.988 43.456 153.012 43.392 153.06 43.344C153.116 43.288 153.184 43.26 153.264 43.26H154.2V41.256C154.2 41.176 154.224 41.112 154.272 41.064C154.328 41.008 154.396 40.98 154.476 40.98H155.04C155.12 40.98 155.184 41.008 155.232 41.064C155.288 41.112 155.316 41.176 155.316 41.256V43.26H156.804C156.884 43.26 156.948 43.288 156.996 43.344C157.052 43.392 157.08 43.456 157.08 43.536V43.944C157.08 44.024 157.052 44.092 156.996 44.148C156.948 44.196 156.884 44.22 156.804 44.22H155.316V47.304C155.316 47.68 155.38 47.976 155.508 48.192C155.636 48.408 155.864 48.516 156.192 48.516H156.924C157.004 48.516 157.068 48.544 157.116 48.6C157.172 48.648 157.2 48.712 157.2 48.792V49.224C157.2 49.304 157.172 49.372 157.116 49.428C157.068 49.476 157.004 49.5 156.924 49.5H156.096ZM158.624 49.5C158.544 49.5 158.476 49.476 158.42 49.428C158.372 49.372 158.348 49.304 158.348 49.224V43.536C158.348 43.456 158.372 43.392 158.42 43.344C158.476 43.288 158.544 43.26 158.624 43.26H159.2C159.28 43.26 159.344 43.288 159.392 43.344C159.44 43.392 159.464 43.456 159.464 43.536V49.224C159.464 49.304 159.44 49.372 159.392 49.428C159.344 49.476 159.28 49.5 159.2 49.5H158.624ZM158.528 42.096C158.448 42.096 158.38 42.072 158.324 42.024C158.276 41.968 158.252 41.9 158.252 41.82V41.172C158.252 41.092 158.276 41.028 158.324 40.98C158.38 40.924 158.448 40.896 158.528 40.896H159.284C159.364 40.896 159.428 40.924 159.476 40.98C159.532 41.028 159.56 41.092 159.56 41.172V41.82C159.56 41.9 159.532 41.968 159.476 42.024C159.428 42.072 159.364 42.096 159.284 42.096H158.528ZM163.834 49.62C163.226 49.62 162.718 49.504 162.31 49.272C161.902 49.04 161.59 48.72 161.374 48.312C161.158 47.896 161.038 47.424 161.014 46.896C161.006 46.76 161.002 46.588 161.002 46.38C161.002 46.164 161.006 45.992 161.014 45.864C161.038 45.328 161.158 44.856 161.374 44.448C161.598 44.04 161.914 43.72 162.322 43.488C162.73 43.256 163.234 43.14 163.834 43.14C164.434 43.14 164.938 43.256 165.346 43.488C165.754 43.72 166.066 44.04 166.282 44.448C166.506 44.856 166.63 45.328 166.654 45.864C166.662 45.992 166.666 46.164 166.666 46.38C166.666 46.588 166.662 46.76 166.654 46.896C166.63 47.424 166.51 47.896 166.294 48.312C166.078 48.72 165.766 49.04 165.358 49.272C164.95 49.504 164.442 49.62 163.834 49.62ZM163.834 48.696C164.33 48.696 164.726 48.54 165.022 48.228C165.318 47.908 165.478 47.444 165.502 46.836C165.51 46.716 165.514 46.564 165.514 46.38C165.514 46.196 165.51 46.044 165.502 45.924C165.478 45.316 165.318 44.856 165.022 44.544C164.726 44.224 164.33 44.064 163.834 44.064C163.338 44.064 162.938 44.224 162.634 44.544C162.338 44.856 162.182 45.316 162.166 45.924C162.158 46.044 162.154 46.196 162.154 46.38C162.154 46.564 162.158 46.716 162.166 46.836C162.182 47.444 162.338 47.908 162.634 48.228C162.938 48.54 163.338 48.696 163.834 48.696ZM168.444 49.5C168.364 49.5 168.296 49.476 168.24 49.428C168.192 49.372 168.168 49.304 168.168 49.224V43.536C168.168 43.456 168.192 43.392 168.24 43.344C168.296 43.288 168.364 43.26 168.444 43.26H169.008C169.088 43.26 169.152 43.288 169.2 43.344C169.256 43.392 169.284 43.456 169.284 43.536V44.064C169.492 43.792 169.752 43.572 170.064 43.404C170.384 43.228 170.792 43.14 171.288 43.14C171.808 43.14 172.248 43.256 172.608 43.488C172.976 43.712 173.252 44.028 173.436 44.436C173.62 44.836 173.712 45.304 173.712 45.84V49.224C173.712 49.304 173.688 49.372 173.64 49.428C173.592 49.476 173.528 49.5 173.448 49.5H172.848C172.768 49.5 172.7 49.476 172.644 49.428C172.596 49.372 172.572 49.304 172.572 49.224V45.9C172.572 45.34 172.436 44.904 172.164 44.592C171.892 44.272 171.492 44.112 170.964 44.112C170.468 44.112 170.068 44.272 169.764 44.592C169.468 44.904 169.32 45.34 169.32 45.9V49.224C169.32 49.304 169.292 49.372 169.236 49.428C169.188 49.476 169.124 49.5 169.044 49.5H168.444ZM177.606 49.62C177.158 49.62 176.774 49.564 176.454 49.452C176.134 49.34 175.874 49.204 175.674 49.044C175.474 48.884 175.322 48.724 175.218 48.564C175.122 48.404 175.07 48.276 175.062 48.18C175.054 48.092 175.082 48.024 175.146 47.976C175.21 47.928 175.274 47.904 175.338 47.904H175.866C175.914 47.904 175.95 47.912 175.974 47.928C176.006 47.936 176.046 47.968 176.094 48.024C176.198 48.136 176.314 48.248 176.442 48.36C176.57 48.472 176.726 48.564 176.91 48.636C177.102 48.708 177.338 48.744 177.618 48.744C178.026 48.744 178.362 48.668 178.626 48.516C178.89 48.356 179.022 48.124 179.022 47.82C179.022 47.62 178.966 47.46 178.854 47.34C178.75 47.22 178.558 47.112 178.278 47.016C178.006 46.92 177.63 46.82 177.15 46.716C176.67 46.604 176.29 46.468 176.01 46.308C175.73 46.14 175.53 45.944 175.41 45.72C175.29 45.488 175.23 45.228 175.23 44.94C175.23 44.644 175.318 44.36 175.494 44.088C175.67 43.808 175.926 43.58 176.262 43.404C176.606 43.228 177.034 43.14 177.546 43.14C177.962 43.14 178.318 43.192 178.614 43.296C178.91 43.4 179.154 43.532 179.346 43.692C179.538 43.844 179.682 43.996 179.778 44.148C179.874 44.3 179.926 44.428 179.934 44.532C179.942 44.612 179.918 44.68 179.862 44.736C179.806 44.784 179.742 44.808 179.67 44.808H179.166C179.11 44.808 179.062 44.796 179.022 44.772C178.99 44.748 178.958 44.72 178.926 44.688C178.846 44.584 178.75 44.48 178.638 44.376C178.534 44.272 178.394 44.188 178.218 44.124C178.05 44.052 177.826 44.016 177.546 44.016C177.146 44.016 176.846 44.1 176.646 44.268C176.446 44.436 176.346 44.648 176.346 44.904C176.346 45.056 176.39 45.192 176.478 45.312C176.566 45.432 176.734 45.54 176.982 45.636C177.23 45.732 177.598 45.836 178.086 45.948C178.614 46.052 179.03 46.192 179.334 46.368C179.638 46.544 179.854 46.748 179.982 46.98C180.11 47.212 180.174 47.48 180.174 47.784C180.174 48.12 180.074 48.428 179.874 48.708C179.682 48.988 179.394 49.212 179.01 49.38C178.634 49.54 178.166 49.62 177.606 49.62Z" fill="#8479E1"/>
</svg>
