<svg width="31" height="30" viewBox="0 0 31 30" fill="none" xmlns="http://www.w3.org/2000/svg">
<g style="mix-blend-mode:luminosity" opacity="0.3" clip-path="url(#clip0_232_195)">
<rect width="31" height="30" fill="white"/>
<path d="M22.9446 25.1866C22.9446 26.8095 19.049 28.1251 14.2435 28.1251C9.43798 28.1251 5.54235 26.8095 5.54235 25.1866C5.54235 23.5636 9.43781 22.2475 14.2435 22.2475C19.0492 22.2475 22.9446 23.5652 22.9446 25.1866Z" fill="#A0DCF2"/>
<path d="M22.9446 25.1866C22.9446 26.8095 19.049 28.1251 14.2435 28.1251C9.43798 28.1251 5.54235 26.8095 5.54235 25.1866C5.54235 23.5636 9.43781 22.2475 14.2435 22.2475C19.0492 22.2475 22.9446 23.5652 22.9446 25.1866Z" fill="#82BDE7"/>
<path d="M4.30441 16.5455L4.05327 17.39C4.05327 17.39 3.98793 17.6952 4.28592 17.7493C4.59704 17.7434 4.57164 17.4624 4.54986 17.3713L4.30441 16.5456V16.5455Z" fill="#A0DCF2"/>
<path d="M29.5992 13.0047L29.6222 12.895C27.0696 12.4024 24.4503 12.3974 22.8639 12.461C23.1242 11.5559 23.2027 10.5144 23.2027 9.35292C23.2027 7.68723 22.5541 6.35464 21.5013 5.34065C21.6854 4.76768 21.9312 3.49481 21.2559 1.86564C21.2559 1.86564 20.0632 1.50068 17.371 3.2406C16.3156 2.98606 15.1924 2.86029 14.0675 2.86029C12.8299 2.86029 11.5794 3.01242 10.413 3.32117C7.63259 1.49051 6.40538 1.86548 6.40538 1.86548C5.60406 3.80039 6.09944 5.22989 6.24981 5.58552C5.30814 6.56632 4.73325 7.818 4.73325 9.35276C4.73325 10.5115 4.87015 11.5509 5.20409 12.4543C3.60577 12.3982 1.08168 12.4198 -1.38139 12.8946L-1.35858 13.0044C1.11746 12.5265 3.6571 12.5098 5.24419 12.5679C5.31765 12.7547 5.39975 12.9348 5.49136 13.1117C3.92052 13.1605 1.23863 13.3535 -1.33179 14.0534L-1.30033 14.161C1.29031 13.4559 3.99571 13.2676 5.55134 13.2219C6.4899 14.91 8.34023 16.0005 11.6321 16.3411C11.1647 16.644 10.6884 17.1591 10.4948 18.0308C9.85817 18.3244 7.84277 19.042 6.63336 17.035C6.63336 17.035 5.95649 15.8407 4.66083 15.7473C4.66083 15.7473 3.40423 15.7306 4.57389 16.5029C4.57389 16.5029 5.41513 16.8854 5.99521 18.3211C5.99521 18.3211 6.75228 20.7722 10.4049 19.9858V22.5178C10.4049 22.5178 10.3276 23.4136 9.4767 23.7118C9.4767 23.7118 8.97406 24.0478 9.51542 24.2339C9.51542 24.2339 11.8739 24.4207 11.8739 22.555V19.7941C11.8739 19.7941 11.7806 18.6991 12.3377 18.3186V22.8568C12.3377 22.8568 12.2993 23.9388 11.7192 24.3493C11.7192 24.3493 11.3326 25.0207 12.1831 24.8344C12.1831 24.8344 13.8069 24.6105 13.8843 22.7822L13.9213 18.193H14.3114L14.3486 22.7822C14.4258 24.6104 16.0497 24.8344 16.0497 24.8344C16.9001 25.0207 16.5135 24.3493 16.5135 24.3493C15.9336 23.939 15.895 22.8568 15.895 22.8568V18.3609C16.4521 18.778 16.359 19.7974 16.359 19.7974V22.5584C16.359 24.4239 18.7173 24.2372 18.7173 24.2372C19.2583 24.0509 18.7562 23.7151 18.7562 23.7151C17.9054 23.4149 17.828 22.5212 17.828 22.5212V18.9021C17.828 17.4909 17.2121 16.7433 16.6099 16.3488C20.1187 16.0129 21.805 14.919 22.5815 13.2192C24.1191 13.2599 26.8864 13.4408 29.5334 14.1617L29.5648 14.0541C26.9329 13.3377 24.1841 13.1524 22.6307 13.1087C22.7044 12.9368 22.7685 12.7584 22.8255 12.5749C24.3993 12.5082 27.0305 12.5107 29.5932 13.0052" fill="#292929"/>
<path d="M19.7704 9.27283C20.5267 9.93387 20.969 10.7324 20.969 11.5922C20.969 15.608 17.8667 15.7169 14.0404 15.7169C10.2141 15.7169 7.11146 15.1626 7.11146 11.5939C7.11146 10.7395 7.54772 9.94621 8.2946 9.28784C9.54014 8.19061 11.6485 8.77158 14.04 8.77158C16.4222 8.77158 18.5227 8.18477 19.7699 9.27449" fill="#F5CDB5"/>
<path d="M11.7363 11.7986C11.7363 12.9045 11.0909 13.8013 10.2948 13.8013C9.49866 13.8013 8.8529 12.9047 8.8529 11.7986C8.8529 10.6926 9.49866 9.79633 10.2948 9.79633C11.0909 9.79633 11.7363 10.6926 11.7363 11.7986Z" fill="white"/>
<path d="M11.2736 11.8238C11.2736 12.5611 10.8415 13.1586 10.3126 13.1586C9.78368 13.1586 9.35156 12.5611 9.35156 11.8238C9.35156 11.0865 9.78161 10.4884 10.3126 10.4884C10.8436 10.4884 11.2736 11.0862 11.2736 11.8238Z" fill="#B1645A"/>
<path d="M19.4706 11.7986C19.4706 12.9045 18.8251 13.8013 18.0287 13.8013C17.2322 13.8013 16.5871 12.9047 16.5871 11.7986C16.5871 10.6926 17.2327 9.79633 18.0287 9.79633C18.8246 9.79633 19.4706 10.6926 19.4706 11.7986Z" fill="white"/>
<path d="M19.0078 11.8238C19.0078 12.561 18.5757 13.1585 18.0468 13.1585C17.5179 13.1585 17.0858 12.561 17.0858 11.8238C17.0858 11.0865 17.5179 10.4883 18.0468 10.4883C18.5757 10.4883 19.0078 11.0862 19.0078 11.8238ZM14.4212 13.5752C14.4212 13.7673 14.2597 13.9231 14.0606 13.9231C13.8615 13.9231 13.7 13.7673 13.7 13.5752C13.7 13.383 13.8613 13.2272 14.0606 13.2272C14.2599 13.2272 14.4212 13.383 14.4212 13.5752ZM13.2207 14.4551C13.2157 14.4412 13.2135 14.4265 13.2143 14.4119C13.2151 14.3972 13.2189 14.3828 13.2254 14.3695C13.232 14.3563 13.2412 14.3444 13.2525 14.3346C13.2639 14.3248 13.2771 14.3172 13.2914 14.3123C13.3058 14.3074 13.321 14.3053 13.3362 14.3061C13.3514 14.3068 13.3663 14.3105 13.3801 14.3168C13.3938 14.3232 13.4061 14.332 13.4163 14.343C13.4265 14.3539 13.4343 14.3667 13.4394 14.3805C13.532 14.6332 13.7804 14.803 14.0577 14.803C14.3349 14.803 14.5831 14.6332 14.6761 14.3805C14.6812 14.3667 14.689 14.3539 14.6992 14.343C14.7094 14.3321 14.7217 14.3232 14.7354 14.3169C14.7492 14.3106 14.764 14.3069 14.7792 14.3061C14.7944 14.3054 14.8096 14.3075 14.824 14.3124C14.8383 14.3173 14.8515 14.3248 14.8629 14.3347C14.8742 14.3445 14.8834 14.3564 14.8899 14.3696C14.8965 14.3829 14.9003 14.3972 14.9011 14.4119C14.9019 14.4266 14.8997 14.4412 14.8946 14.4551C14.8323 14.621 14.7185 14.7644 14.5688 14.8658C14.419 14.9671 14.2406 15.0215 14.0577 15.0215C13.8748 15.0215 13.6963 14.9671 13.5466 14.8658C13.3968 14.7644 13.283 14.621 13.2207 14.4551Z" fill="#B1645A"/>
<path d="M5.22742 16.0475C5.22742 16.1404 5.11473 16.2153 4.97593 16.2153C4.83713 16.2153 4.72461 16.1402 4.72461 16.0475C4.72461 15.9547 4.83696 15.8793 4.97593 15.8793C5.1149 15.8793 5.22742 15.9544 5.22742 16.0475ZM5.92365 16.4203C5.92365 16.5132 5.81095 16.5884 5.67216 16.5884C5.53336 16.5884 5.42084 16.5133 5.42084 16.4203C5.42084 16.3272 5.53319 16.2525 5.67216 16.2525C5.81113 16.2525 5.92365 16.3275 5.92365 16.4203ZM6.3492 16.904C6.3492 16.9966 6.23685 17.0718 6.09771 17.0718C5.95857 17.0718 5.84656 16.9967 5.84656 16.904C5.84656 16.8113 5.95891 16.7359 6.09771 16.7359C6.2365 16.7359 6.3492 16.8109 6.3492 16.904ZM6.73551 17.464C6.73551 17.5569 6.62316 17.6321 6.48437 17.6321C6.34557 17.6321 6.23287 17.557 6.23287 17.464C6.23287 17.3709 6.34523 17.2958 6.48437 17.2958C6.62351 17.2958 6.73551 17.3709 6.73551 17.464ZM7.16106 17.9882C7.16106 18.0808 7.04871 18.156 6.90974 18.156C6.77078 18.156 6.65825 18.081 6.65825 17.9882C6.65825 17.8955 6.77095 17.8201 6.90974 17.8201C7.04854 17.8201 7.16106 17.8951 7.16106 17.9882ZM7.74131 18.4357C7.74131 18.5287 7.62896 18.6039 7.48982 18.6039C7.35068 18.6039 7.23867 18.5288 7.23867 18.4357C7.23867 18.3427 7.35102 18.2679 7.48982 18.2679C7.62862 18.2679 7.74131 18.343 7.74131 18.4357Z" fill="#C5E6DA"/>
<path d="M8.55335 18.7345C8.55335 18.8271 8.441 18.9023 8.30203 18.9023C8.16306 18.9023 8.05054 18.8273 8.05054 18.7345C8.05054 18.6418 8.16289 18.5664 8.30203 18.5664C8.44117 18.5664 8.55335 18.6415 8.55335 18.7345Z" fill="#C5E6DA"/>
<path d="M9.36158 18.7345C9.36158 18.8271 9.24923 18.9023 9.11027 18.9023C8.9713 18.9023 8.85877 18.8273 8.85877 18.7345C8.85877 18.6418 8.97112 18.5664 9.11027 18.5664C9.24941 18.5664 9.36158 18.6415 9.36158 18.7345Z" fill="#C5E6DA"/>
<path d="M10.1819 18.6046C10.1819 18.6975 10.0696 18.7727 9.93059 18.7727C9.79162 18.7727 9.6791 18.6976 9.6791 18.6046C9.6791 18.5115 9.79145 18.4364 9.93059 18.4364C10.0697 18.4364 10.1819 18.5115 10.1819 18.6046Z" fill="#C5E6DA"/>
</g>
<defs>
<clipPath id="clip0_232_195">
<rect width="31" height="30" fill="white"/>
</clipPath>
</defs>
</svg>
