<svg width="33" height="30" viewBox="0 0 33 30" fill="none" xmlns="http://www.w3.org/2000/svg">
<g style="mix-blend-mode:luminosity" opacity="0.3" clip-path="url(#clip0_232_173)">
<path d="M16.3969 0.081543L17.2776 1.58529C17.4756 1.86279 17.6901 2.10842 17.9427 2.33717C18.6801 3.00748 19.3803 3.70967 20.0093 4.46154C21.5016 6.24279 22.5081 8.22092 23.2268 10.3603C23.6579 11.6672 23.892 13.0078 23.9095 14.3634C23.9817 18.4162 22.4534 21.8962 19.372 24.7884C18.8688 25.2459 18.3305 25.6697 17.753 26.0465C17.4477 26.0465 17.3033 25.8337 17.1775 25.6378C16.9434 25.2787 16.8001 24.869 16.7279 24.4612C16.6196 23.9709 16.5485 23.4806 16.5835 22.9744V22.7456C16.5588 22.6969 16.2896 0.196855 16.3969 0.081543Z" fill="#599636"/>
<path d="M16.3969 0.0318866C16.3608 -0.0337384 16.3247 0.0159491 16.2886 0.0478241C16.3061 0.375949 16.1803 0.668449 15.9833 0.947824C15.7668 1.22532 15.4801 1.43814 15.1924 1.66689C13.5939 2.92501 12.3358 4.4447 11.3283 6.14439C9.98765 8.43189 9.29671 10.8834 9.10077 13.4644C9.01105 14.3953 9.42458 17.6803 9.74737 18.6281C10.6281 21.1444 12.21 23.2528 14.2591 25.0828C14.7623 25.5234 15.3006 25.9322 15.8575 26.325C16.0194 26.325 16.037 26.1938 16.0741 26.0963C16.1451 25.8876 16.1992 25.6746 16.236 25.4588L16.5969 23.0081L16.3969 0.0318866Z" fill="#6CAC48"/>
<path d="M17.2776 27.0422C17.3137 26.6672 17.5117 26.3559 17.7272 26.0456C17.5106 25.9641 17.3498 25.8019 17.2239 25.6209C17.1157 25.4578 17.0259 25.2619 16.9558 25.0819C16.7042 24.3956 16.6506 23.6756 16.5784 22.9744V22.5497C16.4887 22.6153 16.4701 23.1703 16.4701 23.2528C16.4176 23.994 16.3094 24.731 16.1463 25.4587C16.0927 25.7531 16.0566 26.0466 15.8575 26.3081C15.8575 26.3409 15.8575 26.3737 15.8751 26.4225C16.1989 27.2887 16.2876 28.1709 16.3422 29.07V29.3981C16.3422 29.79 16.3247 29.7075 16.6825 29.8387C16.8269 29.8875 16.9878 29.9044 17.1322 30.0019C17.2405 30.0019 17.258 29.9203 17.258 29.8547L17.2044 29.3156V27.8119C17.1868 27.5494 17.2405 27.2887 17.2765 27.0431L17.2776 27.0422Z" fill="#C2BFBF"/>
</g>
<defs>
<clipPath id="clip0_232_173">
<rect width="33" height="30" fill="white"/>
</clipPath>
</defs>
</svg>
