<svg width="34" height="31" viewBox="0 0 34 31" fill="none" xmlns="http://www.w3.org/2000/svg">
<g style="mix-blend-mode:luminosity" opacity="0.3">
<path fill-rule="evenodd" clip-rule="evenodd" d="M18.163 0.999512C17.94 0.999512 17.7329 1.04466 17.5417 1.10482C17.948 1.36045 18.171 1.69882 18.2826 2.08222C18.2906 2.13493 18.3065 2.17252 18.3144 2.22511C18.3224 2.27026 18.3304 2.31529 18.3304 2.36044C18.3622 3.02216 18.1471 3.10478 17.9957 3.49586C17.7647 3.99969 17.8284 4.54099 18.1073 4.9771C18.1312 5.02969 18.163 5.08985 18.203 5.14244C17.9002 3.24022 19.5811 2.95444 19.8918 2.36044C19.9157 1.8416 19.4615 1.49578 19.1031 1.25515C18.7604 1.05967 18.4498 0.999512 18.163 0.999512ZM20.6964 1.42806C20.6644 1.60108 20.6884 1.55594 20.6804 1.64611C20.6725 1.70627 20.6725 1.78144 20.6645 1.8416C20.6486 1.90175 20.6327 1.96191 20.6088 2.02207C20.5927 2.08222 20.5689 2.14238 20.545 2.20254C20.5131 2.2627 20.4893 2.31541 20.4575 2.37545C20.4335 2.40558 20.4176 2.4356 20.3936 2.46574L20.3458 2.53334C20.306 2.58605 20.2662 2.63865 20.2263 2.68379C20.1785 2.72894 20.1388 2.78154 20.083 2.81912V2.82668C20.0351 2.86427 19.9874 2.9093 19.9316 2.947C19.7643 3.06719 19.5731 3.15749 19.3978 3.27024C19.3421 3.30782 19.2863 3.33796 19.2385 3.38311C19.1828 3.42069 19.135 3.45827 19.0872 3.5033C19.0314 3.54845 18.9916 3.5936 18.9437 3.64619C18.9039 3.69134 18.8562 3.74393 18.8243 3.79664C18.7845 3.84924 18.7447 3.90183 18.7127 3.95454C18.6809 4.0147 18.657 4.06729 18.6252 4.12745C18.6013 4.18761 18.5774 4.24032 18.5615 4.30036C18.5402 4.36231 18.5216 4.42503 18.5056 4.48839C18.4977 4.51841 18.4977 4.556 18.4897 4.58613C18.4817 4.61615 18.4817 4.64629 18.4738 4.67631C18.4738 4.73647 18.4658 4.80419 18.4658 4.86435C18.4658 4.90938 18.4658 4.95452 18.4738 4.99967C18.4738 5.05983 18.4818 5.11998 18.4977 5.18759C18.5057 5.24775 18.5216 5.3079 18.5375 5.36806C18.5615 5.42822 18.5774 5.48837 18.6013 5.54841C18.6173 5.58611 18.6411 5.6237 18.657 5.65383L16.8248 4.98454C16.5142 4.90193 16.2114 4.82664 15.9007 4.75904L15.3988 4.64617C14.9194 4.55596 14.4356 4.48823 13.9491 4.44325C13.9331 4.44325 13.925 4.43568 13.9091 4.43568C13.4312 4.39054 12.9611 4.36808 12.4832 4.36808C12.1327 4.36808 11.7822 4.38309 11.4396 4.40566C10.9536 4.43568 10.4677 4.49584 9.98182 4.57101C9.86224 4.58613 9.74266 4.60859 9.62332 4.63116C9.37627 4.67631 9.13735 4.7289 8.90633 4.78161L8.54783 4.87179C8.42825 4.91694 8.31681 4.96953 8.20524 5.01468L7.94241 5.12755C7.92638 5.13499 7.91048 5.13499 7.90259 5.14244C7.82295 5.18003 7.7512 5.21016 7.67945 5.24775C7.65566 5.25531 7.63963 5.26287 7.62373 5.27032C7.5362 5.3079 7.44855 5.35293 7.3768 5.39063C7.32108 5.41321 7.26523 5.44323 7.21752 5.4658C7.19361 5.48093 7.16168 5.49594 7.14577 5.50338C7.07403 5.54097 7.0024 5.57855 6.93866 5.61625C6.86692 5.65372 6.80318 5.69142 6.74746 5.729C6.69174 5.76659 6.63589 5.79661 6.58818 5.83419C6.58017 5.84175 6.57215 5.84175 6.56426 5.84932C6.51643 5.87934 6.46071 5.91692 6.41288 5.9545L6.39685 5.96963L6.27752 6.05981C6.26149 6.06726 6.24546 6.08238 6.22968 6.08983C6.18986 6.11997 6.15005 6.15755 6.1101 6.18757C6.10221 6.2027 6.08631 6.21014 6.0783 6.21771C6.03046 6.26285 5.98275 6.30032 5.93492 6.34547C5.92691 6.34547 5.92691 6.35303 5.9189 6.36059C5.87119 6.39818 5.82335 6.44321 5.77552 6.48835C5.76763 6.49592 5.76763 6.50348 5.75962 6.50348C5.71784 6.54177 5.67797 6.58188 5.64016 6.62368C5.62414 6.63881 5.60034 6.65382 5.58444 6.66883C5.54462 6.71397 5.49679 6.759 5.44896 6.80415C5.44094 6.81928 5.42504 6.82672 5.41715 6.84173C5.35341 6.90189 5.29757 6.96205 5.23383 7.02221L5.21004 7.04478C5.08257 7.17254 4.94708 7.30042 4.80371 7.41317C4.66247 7.53213 4.51346 7.64262 4.35756 7.74397C4.20307 7.84625 4.04358 7.94161 3.87961 8.02975C3.71702 8.11394 3.54945 8.18927 3.37774 8.25537C3.20831 8.32329 3.03552 8.38348 2.85996 8.43572C2.52538 8.50344 2.18279 8.63121 1.88803 8.65378C1.82429 8.65378 1.75266 8.66891 1.68893 8.67635C1.61718 8.69148 1.55345 8.70649 1.48971 8.7215L1.29863 8.78922C1.23477 8.81168 1.17103 8.84181 1.1073 8.87183C1.05157 8.90942 0.987839 8.93955 0.932117 8.97714C0.876271 9.01472 0.820548 9.05975 0.772716 9.10502C0.716994 9.1426 0.661271 9.19519 0.613439 9.24034C0.565606 9.29293 0.517897 9.33808 0.477955 9.39068C0.438135 9.45083 0.390426 9.50354 0.358497 9.56358C0.318677 9.61629 0.278858 9.67645 0.247052 9.73661C0.215 9.80421 0.183317 9.86437 0.1594 9.93209C0.134254 9.99684 0.110334 10.062 0.0876517 10.1276C0.0717487 10.1877 0.0558456 10.2479 0.0478325 10.3079C0.0478325 10.3156 0.0398193 10.3231 0.0398193 10.3306C0.0239162 10.3982 0.0239163 10.4885 0.0159031 10.5335C0.00801319 10.5863 0 10.6313 0 10.684C0 10.714 7.34803e-09 10.7516 0.00801318 10.7817C0.0160263 10.8343 0.0240395 10.8795 0.0399426 10.9246C0.0558456 10.9697 0.0717487 11.0148 0.0956649 11.0599V11.0674C0.119581 11.1125 0.151387 11.1577 0.183193 11.2028C0.215246 11.2479 0.247052 11.293 0.286748 11.3382C0.326691 11.3757 0.374523 11.4208 0.422356 11.4585C0.470065 11.5035 0.517897 11.5411 0.57362 11.5788C0.764826 11.7367 0.812658 11.7893 1.05959 11.9096C1.09941 11.9322 1.13923 11.9472 1.18706 11.9698C1.19507 11.9698 1.20296 11.9772 1.21097 11.9772C1.21097 11.9923 1.21097 11.9998 1.21886 12.0149C1.22688 12.0751 1.24278 12.1352 1.25881 12.1953C1.27397 12.2572 1.29527 12.3176 1.32242 12.3757C1.34634 12.4209 1.36236 12.466 1.38615 12.5112C1.39417 12.5262 1.40218 12.5412 1.41007 12.5487C1.442 12.6089 1.47381 12.6615 1.50574 12.7141L1.62519 12.872C1.66501 12.9171 1.71272 12.9697 1.76068 13.0149C1.80839 13.06 1.85622 13.0975 1.91194 13.1428C1.91194 13.1428 1.91996 13.1502 1.92797 13.1502C1.97568 13.1878 2.02351 13.2255 2.07134 13.2555C2.12706 13.2931 2.18279 13.3232 2.24652 13.3532C2.30237 13.3834 2.3661 13.4134 2.42984 13.4359C2.47755 13.4586 2.53339 13.4736 2.58912 13.4886C2.59713 13.4961 2.60502 13.4961 2.62092 13.5037C2.65298 13.5111 2.69267 13.5187 2.72448 13.5262C2.70068 13.9322 2.69267 14.3156 2.75653 14.451C2.82803 14.6014 3.17864 14.1427 3.52912 13.6165C3.48129 14.1352 3.44948 14.7443 3.52912 14.9247C3.61677 15.1127 4.09473 14.5263 4.50895 13.8795C10.1571 12.6465 15.3113 16.3309 15.853 21.5339C15.7495 20.7219 14.6899 20.2707 14.2039 20.3835C13.965 20.9399 13.5587 21.6542 12.9054 22.0979C12.9625 21.5958 12.9356 21.0883 12.8258 20.5941C12.6506 21.2858 12.308 21.9324 11.8379 22.4889C11.0812 22.5415 10.3244 22.1956 9.9261 21.6767C9.89417 21.6542 9.88628 21.6092 9.86236 21.5789C9.83845 21.5264 9.81453 21.4738 9.79863 21.4212C9.77538 21.3708 9.7593 21.3177 9.75079 21.2633C9.74278 21.2106 9.74278 21.158 9.74278 21.0978V20.9849C9.75079 20.9323 9.7667 20.8798 9.7826 20.8272C9.79863 20.7745 9.81453 20.7219 9.83845 20.6693C9.87025 20.6166 9.89417 20.564 9.93399 20.5114C10.0695 20.1504 10.0695 19.8572 9.82254 19.6843C9.7747 19.6548 9.72402 19.6295 9.67116 19.609C9.63923 19.6016 9.59941 19.5865 9.5676 19.579C9.54368 19.5714 9.52778 19.5639 9.50387 19.5564C9.44802 19.5413 9.3923 19.5263 9.33657 19.5188C9.2822 19.504 9.22589 19.4964 9.16928 19.4963C9.11344 19.4887 9.0497 19.4811 8.99398 19.4811C8.95416 19.4811 8.91434 19.4888 8.8744 19.4888C8.81079 19.4888 8.75506 19.4963 8.69934 19.5113C8.6435 19.5188 8.58777 19.5264 8.53193 19.5414C8.47621 19.5565 8.42036 19.5715 8.36464 19.594C8.30892 19.6166 8.26108 19.6391 8.20536 19.6617C8.15753 19.6843 8.1097 19.7143 8.05397 19.7369C6.19788 20.8798 7.30518 23.5566 8.57175 24.3311C8.09379 24.4137 7.60783 24.5114 7.47247 24.6091L7.45644 24.6243C7.79916 24.8198 8.15753 24.9852 8.53193 25.1281C9.04181 25.2859 9.5835 25.4288 9.82254 25.4889V25.4965C10.4826 25.6242 11.1575 25.6697 11.83 25.6318C15.359 25.3988 18.2508 22.8648 18.7766 19.5264C18.7926 19.594 18.8085 19.6542 18.8244 19.7219C18.8483 19.8572 18.8801 20 18.896 20.143V20.1504C18.9121 20.2181 18.92 20.2859 18.928 20.3459V20.3762C18.936 20.4436 18.944 20.5114 18.944 20.5716C18.9519 20.6543 18.9598 20.7369 18.9598 20.8197V20.94C18.9598 20.9776 18.9678 21.0226 18.9678 21.0602C18.9678 21.1054 18.9598 21.1505 18.9598 21.1957V21.3009C18.9598 21.3536 18.9518 21.3986 18.9518 21.4513C18.9518 21.4813 18.9518 21.5115 18.9439 21.549C18.9439 21.6016 18.9359 21.6542 18.9359 21.7144C18.9278 21.737 18.9278 21.7595 18.9278 21.7821C18.92 21.8423 18.9119 21.895 18.9039 21.955C18.9039 21.9776 18.9039 22.0002 18.896 22.0227C18.888 22.0979 18.8721 22.1656 18.8641 22.2408V22.2558C18.8482 22.3235 18.8323 22.3987 18.8163 22.4664V22.4889L18.7686 22.6919C18.7686 22.6995 18.7606 22.7145 18.7606 22.7221C18.7445 22.7897 18.7286 22.8574 18.7048 22.925V22.9476C18.6809 23.0228 18.657 23.0904 18.6411 23.1582C18.6331 23.1656 18.6331 23.1732 18.6331 23.1732L18.5613 23.3987C18.5295 23.474 18.5056 23.5416 18.4738 23.6167C18.4419 23.692 18.418 23.7672 18.3862 23.8348C18.3542 23.9101 18.3224 23.9777 18.2905 24.0528H18.2826C18.2505 24.1206 18.2189 24.1957 18.179 24.2634C18.171 24.286 18.163 24.301 18.1551 24.316C18.1471 24.3236 18.1471 24.3312 18.1391 24.3386C17.6213 25.3236 16.8566 26.1882 15.9006 26.865C15.8369 26.9026 15.7731 26.9476 15.7095 26.9929C15.6935 27.0079 15.6696 27.0153 15.6537 27.0304C15.5979 27.068 15.5421 27.1056 15.4785 27.1432L15.5023 27.1883H15.5103L15.8449 27.1432H15.8529C16.06 27.1131 16.2671 27.0755 16.4742 27.0379C16.5299 27.0303 16.5938 27.0153 16.6495 27.0003C16.6893 26.9927 16.7211 26.9853 16.761 26.9777C16.8168 26.9703 16.8725 26.9552 16.9283 26.9477C16.9761 26.9326 17.0239 26.9251 17.0717 26.9101C17.8684 26.7297 18.6411 26.4815 19.382 26.1882C18.1153 27.8199 16.4184 29.1357 14.4348 30.0004C15.351 29.9402 16.2671 29.7974 17.1514 29.5568C20.3618 28.662 23.0624 26.6244 24.6795 23.8799C24.3512 25.6208 23.6195 27.2717 22.5366 28.7146C23.3086 28.2339 24.0219 27.6742 24.6635 27.0455C26.448 25.286 27.6191 23.0529 28.0174 20.6543C28.2891 21.8442 28.367 23.0663 28.2484 24.2785C34 16.7068 28.7263 8.85694 26.5196 6.78926C26.5118 6.77413 26.5037 6.76668 26.5037 6.75167C26.4958 6.75912 26.4959 6.75912 26.4959 6.76668C26.4959 6.75912 26.4959 6.75912 26.4878 6.75156C26.4878 6.84185 26.4798 6.93203 26.4718 7.02232C26.448 7.19523 26.4241 7.36069 26.3922 7.52615C26.3524 7.6915 26.3046 7.85696 26.2568 8.0223C26.2001 8.18513 26.1364 8.34568 26.0657 8.50356C25.9925 8.65938 25.9127 8.81239 25.8266 8.96224C25.739 9.10502 25.6434 9.25547 25.5398 9.39079C25.4373 9.53065 25.3283 9.66615 25.2131 9.79688C25.0937 9.93221 24.9663 10.0525 24.8389 10.1727C24.7638 10.2375 24.6868 10.3002 24.6078 10.3608C24.5441 10.4133 24.4882 10.4585 24.4245 10.5111C24.2811 10.6164 24.1378 10.7141 23.9785 10.8043C23.8271 10.8946 23.6678 10.9848 23.5084 11.0601C23.3411 11.1352 23.1738 11.2028 23.0067 11.2706C22.8393 11.3307 22.664 11.3834 22.4888 11.4285C22.3126 11.4732 22.1345 11.5109 21.955 11.5413C21.7718 11.5713 21.5886 11.5864 21.4133 11.6014C21.2858 11.6089 21.1583 11.6165 21.0309 11.6165C20.8477 11.6165 20.6645 11.6014 20.4892 11.5862C20.306 11.5713 20.1228 11.5488 19.9475 11.5112C19.7643 11.4809 19.589 11.4359 19.4137 11.3833H19.4058C19.5811 11.3682 19.7563 11.3532 19.9316 11.3231C20.1113 11.2935 20.2894 11.2558 20.4654 11.2103C20.6406 11.1656 20.8134 11.113 20.9832 11.0525C21.1583 10.9923 21.3256 10.9172 21.4849 10.8419C21.6523 10.7667 21.8037 10.684 21.963 10.5938C22.1144 10.4961 22.2656 10.3983 22.4091 10.293C22.5518 10.1883 22.6875 10.0753 22.8153 9.95466C22.9508 9.8418 23.0703 9.71403 23.1897 9.58627C23.3062 9.4546 23.4178 9.31915 23.5243 9.18018C23.5403 9.15773 23.5562 9.12759 23.5722 9.10502C23.6518 8.9847 23.7314 8.86439 23.8032 8.74407C23.8908 8.59502 23.9706 8.44198 24.0422 8.28551C24.1142 8.12812 24.1779 7.96751 24.2333 7.80425C24.2891 7.64635 24.329 7.48089 24.3688 7.31554C24.4007 7.14264 24.4325 6.97718 24.4484 6.81171C24.4645 6.63881 24.4804 6.4659 24.4804 6.30044C24.4804 6.18012 24.4723 6.05981 24.4643 5.93949C24.4485 5.76659 24.4246 5.60124 24.4007 5.43566C24.3693 5.26607 24.3294 5.09798 24.2811 4.93195C24.2254 4.77405 24.1697 4.60871 24.106 4.45081C24.0422 4.29291 23.9626 4.13501 23.8828 3.98456C23.7953 3.83423 23.7076 3.68389 23.612 3.541C23.5103 3.40011 23.4041 3.26219 23.2934 3.12747C23.1735 2.99777 23.0513 2.86991 22.9269 2.74395C22.8598 2.67945 22.7907 2.61678 22.7198 2.55603C22.3629 2.29443 21.9934 2.04854 21.6125 1.81914C21.5568 1.789 21.5089 1.76654 21.4531 1.74397C21.1903 1.58607 20.9433 1.50334 20.6964 1.42817V1.42806Z" fill="#E0234E"/>
</g>
</svg>
