<svg width="52" height="30" viewBox="0 0 52 30" fill="none" xmlns="http://www.w3.org/2000/svg">
<g style="mix-blend-mode:luminosity" opacity="0.3" clip-path="url(#clip0_232_214)">
<path d="M12.2698 7.82818H22.0775V8.57331H13.1688V14.181H21.5463V14.926H13.1688V21.0827H22.1796V21.8278H12.2698V7.82818ZM22.9562 7.82818H23.9982L28.6159 13.9849L33.3359 7.82808L39.7557 0.0078125L29.2085 14.632L34.6436 21.8278H33.5606L28.6159 15.279L23.6508 21.8278H22.5883L28.0643 14.6319L22.9562 7.82818ZM35.0317 8.57331V7.82808H46.2085V8.57322H41.0594V21.8277H40.1604V8.57331H35.0317ZM0 7.82808H1.12379L16.6202 29.9923L10.2164 21.8277L0.939859 8.88696L0.899031 21.8279H0L0 7.82808ZM46.1179 20.8577C45.9342 20.8577 45.7965 20.7218 45.7965 20.5459C45.7965 20.3702 45.9342 20.2341 46.1179 20.2341C46.3038 20.2341 46.4394 20.3701 46.4394 20.5459C46.4394 20.7217 46.3038 20.8577 46.1179 20.8577ZM47.0013 20.0374H47.4824C47.4889 20.2864 47.6791 20.4539 47.959 20.4539C48.2717 20.4539 48.4489 20.2739 48.4489 19.937V17.8023H48.9387V19.939C48.9387 20.5459 48.5714 20.8955 47.9634 20.8955C47.3926 20.8955 47.0013 20.5564 47.0013 20.0373V20.0374ZM49.5794 20.0103H50.0648C50.1064 20.2969 50.3994 20.4789 50.8215 20.4789C51.215 20.4789 51.5037 20.2843 51.5037 20.0165C51.5037 19.7863 51.3199 19.6482 50.9023 19.554L50.4956 19.4599C49.9248 19.3321 49.6647 19.0684 49.6647 18.6248C49.6647 18.087 50.1238 17.7291 50.8126 17.7291C51.4533 17.7291 51.9213 18.0869 51.9497 18.5955H51.473C51.4271 18.3172 51.1734 18.1434 50.806 18.1434C50.4191 18.1434 50.1611 18.3214 50.1611 18.5934C50.1611 18.8089 50.3272 18.9324 50.7383 19.0245L51.0859 19.1061C51.7332 19.2506 52 19.5017 52 19.9558C52 20.5334 51.5321 20.8955 50.7843 20.8955C50.0845 20.8955 49.6143 20.5501 49.5794 20.0102V20.0103Z" fill="black"/>
</g>
<defs>
<clipPath id="clip0_232_214">
<rect width="52" height="30" fill="white"/>
</clipPath>
</defs>
</svg>
