<svg width="27" height="30" viewBox="0 0 27 30" fill="none" xmlns="http://www.w3.org/2000/svg">
<g style="mix-blend-mode:luminosity" opacity="0.3" clip-path="url(#clip0_232_166)">
<path d="M12.2848 0.380804C13.019 -0.0431318 13.9751 -0.0450466 14.7086 0.380804C18.3987 2.48442 22.0899 4.58474 25.7794 6.68963C26.4733 7.084 26.9375 7.86314 26.9304 8.66985V21.326C26.9356 22.1661 26.4255 22.9639 25.6934 23.3493C22.0155 25.4413 18.3394 27.5359 14.6621 29.6279C13.9128 30.0602 12.9374 30.0269 12.2116 29.5592C11.1089 28.9143 10.0044 28.2726 8.90162 27.6284C8.67628 27.4928 8.42226 27.385 8.26315 27.1645C8.40381 26.9732 8.6553 26.9494 8.85965 26.8659C9.31992 26.7182 9.74265 26.4812 10.1655 26.2512C10.2724 26.1774 10.403 26.2057 10.5054 26.2718C11.4483 26.8172 12.3829 27.3785 13.329 27.9187C13.5308 28.0362 13.7351 27.8802 13.9077 27.7831C17.5169 25.7252 21.1305 23.675 24.739 21.6163C24.8727 21.5514 24.9467 21.4082 24.9358 21.2605C24.9383 17.0855 24.9364 12.9097 24.9371 8.73474C24.9524 8.56708 24.8562 8.41293 24.7059 8.34431C21.0407 6.26187 17.3775 4.17623 13.7129 2.09325C13.6494 2.04921 13.5742 2.02559 13.4971 2.02547C13.4201 2.02536 13.3448 2.04876 13.2812 2.09261C9.61665 4.17623 5.95399 6.26378 2.28944 8.34612C2.1397 8.41485 2.03921 8.56644 2.05703 8.73474C2.05767 12.9097 2.05703 17.0855 2.05703 21.2611C2.05068 21.3332 2.06638 21.4056 2.10201 21.4684C2.13764 21.5312 2.1915 21.5815 2.25633 21.6125C3.23423 22.172 4.2134 22.7275 5.19194 23.2851C5.74321 23.5844 6.42006 23.7623 7.02743 23.5329C7.56341 23.339 7.93911 22.7872 7.92888 22.213C7.93395 18.0624 7.92635 13.9111 7.93268 9.76112C7.91929 9.57687 8.09254 9.42463 8.27011 9.44197C8.73997 9.43878 9.21047 9.43559 9.68034 9.44325C9.87647 9.43878 10.0114 9.63719 9.98718 9.82283C9.98529 13.9997 9.99224 18.1768 9.98402 22.3537C9.98529 23.4669 9.53197 24.6781 8.51137 25.2228C7.25403 25.88 5.69997 25.7406 4.45782 25.1105C3.38249 24.569 2.35629 23.93 1.30004 23.3498C0.566033 22.9665 0.0585226 22.1656 0.0636894 21.3261V8.66985C0.0559919 7.84644 0.538617 7.05314 1.25417 6.66453C4.93148 4.5708 8.60816 2.47549 12.2848 0.380804Z" fill="#8CC84B"/>
<path d="M15.4929 9.14782C17.0967 9.04367 18.8137 9.08612 20.257 9.88325C21.3744 10.4941 21.9939 11.7761 22.0136 13.0286C21.9824 13.1975 21.8073 13.2907 21.6475 13.2791C21.1821 13.2785 20.7167 13.2855 20.2514 13.2759C20.054 13.2836 19.9392 13.0999 19.9145 12.9239C19.7808 12.3246 19.4568 11.7311 18.8978 11.4421C18.0395 11.0086 17.0444 11.0304 16.1086 11.0394C15.4254 11.076 14.6908 11.1357 14.112 11.541C13.6677 11.848 13.5327 12.4678 13.6913 12.967C13.8408 13.3254 14.2509 13.441 14.5864 13.5476C16.5192 14.0576 18.5674 14.0069 20.4633 14.678C21.2483 14.9517 22.0161 15.4836 22.2848 16.3127C22.6362 17.424 22.4822 18.7523 21.6985 19.6444C21.063 20.3786 20.1374 20.7781 19.2142 20.9952C17.9861 21.2714 16.7116 21.2785 15.4643 21.1558C14.2916 21.0209 13.0712 20.7101 12.1658 19.9039C11.3916 19.2257 11.0135 18.169 11.051 17.1491C11.06 16.9769 11.23 16.8568 11.3935 16.8709C11.8621 16.8671 12.3307 16.8658 12.7993 16.8715C12.9865 16.858 13.1252 17.0212 13.1348 17.1992C13.2213 17.7702 13.434 18.3694 13.9275 18.7079C14.8799 19.3278 16.0749 19.2854 17.1654 19.3027C18.0689 19.2623 19.083 19.2501 19.8203 18.6476C20.2093 18.304 20.3245 17.7291 20.2194 17.2345C20.1055 16.817 19.6726 16.6224 19.3008 16.4952C17.3927 15.8862 15.3217 16.1072 13.4321 15.4186C12.665 15.1451 11.9232 14.6279 11.6284 13.8328C11.2172 12.7075 11.4056 11.3156 12.2714 10.4536C13.1156 9.59612 14.3343 9.26591 15.4929 9.14771V9.14782Z" fill="#8CC84B"/>
</g>
<defs>
<clipPath id="clip0_232_166">
<rect width="27" height="30" fill="white"/>
</clipPath>
</defs>
</svg>
