<svg width="31" height="30" viewBox="0 0 31 30" fill="none" xmlns="http://www.w3.org/2000/svg">
<g style="mix-blend-mode:luminosity" opacity="0.3" clip-path="url(#clip0_232_177)">
<path d="M22.9872 21.8391C23.1846 20.2488 23.1253 20.0168 24.3483 20.2734L24.6596 20.3004C25.6005 20.3414 26.8308 20.1539 27.5658 19.8293C29.1219 19.1309 30.0446 17.9637 28.5103 18.2707C25.0107 18.9691 24.7564 17.8219 24.7564 17.8219C28.4534 12.5133 29.9998 5.775 28.6641 4.12617C25.0265 -0.373827 18.7284 1.7543 18.623 1.81055L18.5891 1.81641C17.8989 1.67578 17.136 1.59375 16.252 1.58203C14.6681 1.55859 13.4669 1.98399 12.5538 2.65313C12.5538 2.65313 1.31994 -1.82578 1.84186 8.28633C1.95326 10.4379 5.02662 24.5754 8.69576 20.298C10.0387 18.7348 11.3344 17.4141 11.3344 17.4141C11.9762 17.8277 12.7476 18.0387 13.5553 17.9625L13.6182 17.9109C13.5996 18.1135 13.6081 18.3175 13.6437 18.518C12.6991 19.5398 12.9776 19.7191 11.0886 20.0953C9.17772 20.4762 10.3015 21.1547 11.0329 21.3328C11.9217 21.5484 13.9779 21.8531 15.368 19.9711L15.3123 20.1855C15.6829 20.4727 15.6574 22.248 15.7119 23.516C15.7664 24.784 15.8524 25.9687 16.12 26.666C16.3876 27.3633 16.7013 29.1621 19.1837 28.6582C21.258 28.2281 22.8444 27.6082 22.9897 21.8496" fill="black"/>
<path d="M22.9872 21.8391C23.1846 20.2488 23.1253 20.0168 24.3483 20.2734L24.6596 20.3004C25.6005 20.3414 26.8308 20.1539 27.5658 19.8293C29.1219 19.1309 30.0446 17.9637 28.5103 18.2707C25.0107 18.9691 24.7564 17.8219 24.7564 17.8219C28.4534 12.5133 29.9998 5.775 28.6641 4.12617C25.0265 -0.373827 18.7284 1.7543 18.623 1.81055L18.5891 1.81641C17.8989 1.67578 17.136 1.59375 16.252 1.58203C14.6681 1.55859 13.4669 1.98399 12.5538 2.65313C12.5538 2.65313 1.31994 -1.82578 1.84186 8.28633C1.95326 10.4379 5.02662 24.5754 8.69576 20.298C10.0387 18.7348 11.3344 17.4141 11.3344 17.4141C11.9762 17.8277 12.7476 18.0387 13.5553 17.9625L13.6182 17.9109C13.5996 18.1135 13.6081 18.3175 13.6437 18.518C12.6991 19.5398 12.9776 19.7191 11.0886 20.0953C9.17772 20.4762 10.3015 21.1547 11.0329 21.3328C11.9217 21.5484 13.9779 21.8531 15.368 19.9711L15.3123 20.1855C15.6829 20.4727 15.6574 22.248 15.7119 23.516C15.7664 24.784 15.8524 25.9687 16.12 26.666C16.3876 27.3633 16.7013 29.1621 19.1837 28.6582C21.258 28.2281 22.8444 27.6082 22.9897 21.8496" stroke="black" stroke-width="5.3725"/>
<path d="M28.4994 18.2812C24.9998 18.9797 24.7455 17.8324 24.7455 17.8324C28.4425 12.5238 29.9889 5.78554 28.6544 4.13671C25.0168 -0.363289 18.7187 1.76601 18.6133 1.82109L18.5794 1.82694C17.8102 1.67757 17.0281 1.59871 16.2435 1.5914C14.6596 1.56796 13.4584 1.99335 12.5453 2.66249C12.5453 2.66249 1.31024 -1.81641 1.83336 8.29569C1.94477 10.4473 5.01813 24.5848 8.68727 20.3074C10.0387 18.7348 11.3344 17.4141 11.3344 17.4141C11.9762 17.8277 12.7475 18.0387 13.5552 17.9625L13.6182 17.9109C13.5997 18.1135 13.6082 18.3175 13.6436 18.518C12.6991 19.5398 12.9776 19.7191 11.0886 20.0953C9.1777 20.4762 10.3014 21.1547 11.0329 21.3328C11.9217 21.5484 13.9779 21.8531 15.368 19.9711L15.3123 20.1855C15.6829 20.4726 15.942 22.0523 15.8984 23.4844C15.8548 24.9164 15.8257 25.8984 16.1164 26.6672C16.407 27.4359 16.6976 29.1633 19.18 28.6594C21.2544 28.2293 22.3285 27.1125 22.4798 25.2539C22.5864 23.932 22.8262 24.1266 22.8431 22.9453L23.0369 22.3851C23.2585 20.5922 23.0732 20.0144 24.3507 20.284L24.662 20.3109C25.6028 20.3519 26.8344 20.1644 27.5561 19.8398C29.1121 19.1414 30.0349 17.9742 28.5006 18.2812H28.4994Z" fill="#336791"/>
<path d="M15.517 19.2973C15.4201 22.6324 15.5412 25.991 15.8778 26.7973C16.2145 27.6035 16.9374 29.1996 19.421 28.6863C21.4954 28.2562 22.251 27.423 22.5779 25.5844L23.3445 19.7051M12.5405 2.57811C12.5405 2.57811 1.29814 -1.87032 1.82126 8.24178C1.93267 10.3933 5.00603 24.5308 8.67517 20.2535C10.0145 18.6914 11.2254 17.4691 11.2254 17.4691M18.6121 1.766C18.2246 1.88319 24.8654 -0.583607 28.6411 4.08397C29.9731 5.7328 28.4292 12.4711 24.7322 17.7797" stroke="white" stroke-width="1.79" stroke-linecap="round" stroke-linejoin="round"/>
<path d="M24.7334 17.7774C24.7334 17.7774 24.9756 18.9258 28.4873 18.225C30.0216 17.918 29.0976 19.0852 27.5428 19.7836C26.2665 20.3578 23.4038 20.5043 23.3566 19.7133C23.2355 17.6684 24.863 18.2895 24.7455 17.7774C24.639 17.3157 23.91 16.8633 23.4305 15.7336C23.0103 14.7493 17.6664 7.19066 24.9126 8.31215C25.179 8.25941 23.0236 1.63246 16.2423 1.53636C9.46107 1.44027 9.67541 9.60472 9.67541 9.60472" stroke="white" stroke-width="1.79" stroke-linecap="round" stroke-linejoin="bevel"/>
<path d="M13.6194 18.4781C12.6749 19.5 12.9534 19.6793 11.0644 20.0554C9.15351 20.4363 10.2773 21.1148 11.0087 21.2929C11.8975 21.5086 13.9537 21.8132 15.3438 19.93C15.7677 19.3558 15.3414 18.4418 14.7602 18.2097C14.4792 18.0972 14.1038 17.9566 13.6219 18.4793L13.6194 18.4781Z" stroke="white" stroke-width="1.79" stroke-linejoin="round"/>
<path d="M13.5577 18.4605C13.4608 17.8593 13.7611 17.1457 14.082 16.3089C14.564 15.055 15.6756 13.8011 14.7868 9.82026C14.1244 6.85541 9.67663 9.20268 9.67663 9.60463C9.67663 10.0066 9.87764 11.6437 9.60397 13.548C9.24432 16.0347 11.2387 18.1371 13.5347 17.9226" stroke="white" stroke-width="1.79" stroke-linecap="round" stroke-linejoin="round"/>
<path d="M12.4993 9.54492C12.4787 9.68203 12.7597 10.0488 13.1242 10.098C13.4887 10.1473 13.7999 9.86133 13.8205 9.72305C13.841 9.58476 13.5601 9.43476 13.1956 9.38555C12.8311 9.33633 12.5175 9.40898 12.4993 9.54492Z" fill="white" stroke="white" stroke-width="0.5975"/>
<path d="M23.5964 9.26489C23.6157 9.402 23.336 9.7688 22.9715 9.81802C22.607 9.86724 22.2934 9.5813 22.2752 9.44302C22.2571 9.30474 22.5356 9.15474 22.9001 9.10552C23.2646 9.0563 23.5782 9.12895 23.5964 9.26489Z" fill="white" stroke="white" stroke-width="0.2975"/>
<path d="M24.8993 8.31445C24.9598 9.39258 24.6595 10.125 24.6208 11.2723C24.5651 12.9387 25.4418 14.8465 24.1207 16.7566" stroke="white" stroke-width="1.79" stroke-linecap="round" stroke-linejoin="round"/>
</g>
<defs>
<clipPath id="clip0_232_177">
<rect width="31" height="30" fill="white"/>
</clipPath>
</defs>
</svg>
