<svg width="35" height="30" viewBox="0 0 35 30" fill="none" xmlns="http://www.w3.org/2000/svg">
<g style="mix-blend-mode:luminosity" opacity="0.3" clip-path="url(#clip0_232_192)">
<path d="M28.777 9.71364C28.4139 9.59336 28.0377 9.47956 27.6503 9.37194C27.714 9.12186 27.7724 8.87501 27.8244 8.63236C28.6773 4.64801 28.1196 1.43819 26.2155 0.381381C24.3896 -0.63196 21.4035 0.42461 18.3877 2.9505C18.0977 3.19338 17.8069 3.45054 17.5162 3.72005C17.3225 3.54174 17.1291 3.36942 16.9363 3.2046C13.7756 0.503754 10.6076 -0.634418 8.70524 0.425449C6.88111 1.44173 6.34091 4.45927 7.10863 8.23527C7.18276 8.59999 7.26942 8.97244 7.36742 9.35113C6.91905 9.47363 6.48619 9.60421 6.07202 9.74314C2.36651 10.9865 0 12.9351 0 14.9563C0 17.0439 2.54045 19.1377 6.40003 20.4073C6.70461 20.5075 7.02066 20.6022 7.34636 20.6921C7.24064 21.1017 7.14868 21.5031 7.0715 21.8945C6.33948 25.605 6.91114 28.5512 8.73041 29.5611C10.6095 30.604 13.7633 29.532 16.8342 26.9486C17.0769 26.7444 17.3205 26.5278 17.5645 26.3008C17.8808 26.5939 18.1966 26.8714 18.5107 27.1316C21.4853 29.595 24.4232 30.5898 26.2407 29.5771C28.118 28.5312 28.7281 25.3662 27.936 21.5155C27.8755 21.2214 27.8052 20.921 27.7261 20.6152C27.9476 20.5522 28.165 20.4872 28.377 20.4195C32.3894 19.1401 35 17.0717 35 14.9563C35 12.9278 32.5572 10.966 28.777 9.71364ZM27.9068 19.0536C27.7154 19.1146 27.519 19.1735 27.3189 19.2307C26.876 17.8811 26.2781 16.446 25.5465 14.9633C26.2447 13.516 26.8194 12.0992 27.2499 10.7584C27.608 10.8581 27.9555 10.9633 28.2903 11.0743C31.5292 12.1473 33.5048 13.7338 33.5048 14.9563C33.5048 16.2585 31.3712 17.9489 27.9068 19.0536ZM26.4693 21.795C26.8195 23.4977 26.8695 25.0372 26.6375 26.2407C26.4291 27.3221 26.0099 28.043 25.4915 28.3318C24.3885 28.9462 22.0297 28.1476 19.4859 26.0408C19.1942 25.7993 18.9005 25.5414 18.6058 25.2685C19.592 24.2304 20.5777 23.0236 21.5396 21.6834C23.2316 21.5389 24.8302 21.3027 26.2798 20.9802C26.3512 21.2574 26.4146 21.5292 26.4693 21.795ZM11.9323 28.2256C10.8546 28.5919 9.99633 28.6024 9.4775 28.3145C8.37349 27.7017 7.91453 25.3361 8.54058 22.1629C8.61229 21.7995 8.69764 21.4262 8.79601 21.0446C10.2298 21.3498 11.8166 21.5693 13.5126 21.7016C14.4811 23.0131 15.4952 24.2185 16.5172 25.274C16.2939 25.4815 16.0715 25.679 15.8503 25.8651C14.4924 27.0075 13.1316 27.818 11.9323 28.2256ZM6.8836 19.0457C5.17697 18.4843 3.76756 17.7546 2.80149 16.9585C1.9334 16.243 1.49513 15.5327 1.49513 14.9563C1.49513 13.7298 3.3952 12.1653 6.56419 11.102C6.9487 10.9729 7.35122 10.8513 7.76894 10.7371C8.2069 12.1082 8.78143 13.5417 9.47476 14.9913C8.77246 16.4624 8.18977 17.9188 7.74751 19.306C7.44972 19.2236 7.16121 19.1369 6.8836 19.0457ZM8.57597 7.95892C7.91821 4.72374 8.35505 2.28323 9.45433 1.67083C10.6252 1.01843 13.2145 1.94861 15.9434 4.28065C16.1179 4.42971 16.293 4.58572 16.4686 4.74712C15.4517 5.798 14.4469 6.99439 13.487 8.2981C11.841 8.44494 10.2653 8.68081 8.81657 8.99667C8.72549 8.64406 8.64481 8.29762 8.57597 7.95892ZM23.6734 11.5467C23.3271 10.971 22.9715 10.4089 22.6091 9.86215C23.7258 9.99801 24.7957 10.1784 25.8005 10.3991C25.4988 11.3295 25.1228 12.3023 24.6803 13.2996C24.3628 12.7195 24.027 12.1346 23.6734 11.5467ZM17.5167 5.77551C18.2064 6.49458 18.897 7.29741 19.5763 8.16847C18.8918 8.13736 18.1988 8.12117 17.5 8.12117C16.8079 8.12117 16.1199 8.137 15.4396 8.16757C16.1196 7.30461 16.8163 6.50286 17.5167 5.77551ZM11.3206 11.5567C10.9746 12.134 10.6451 12.7157 10.3326 13.2985C9.89715 12.3047 9.52466 11.3275 9.22039 10.3838C10.219 10.1688 11.2839 9.99292 12.3935 9.85963C12.0259 10.4114 11.6675 10.9777 11.3206 11.5565V11.5567ZM12.4255 20.1556C11.279 20.0326 10.1981 19.8658 9.19977 19.6566C9.5089 18.6962 9.88961 17.698 10.3342 16.6828C10.6475 17.2652 10.9784 17.8472 11.3265 18.4258H11.3266C11.6811 19.0152 12.0484 19.5926 12.4255 20.1556ZM17.5581 24.2386C16.8494 23.5027 16.1426 22.6887 15.4522 21.8132C16.1224 21.8385 16.8056 21.8514 17.5 21.8514C18.2134 21.8514 18.9186 21.836 19.6128 21.8062C18.9312 22.6975 18.243 23.5128 17.5581 24.2386ZM24.6945 16.6311C25.1623 17.6573 25.5567 18.6502 25.8698 19.5943C24.855 19.8171 23.7594 19.9965 22.6049 20.1299C22.9683 19.5757 23.3269 19.004 23.6794 18.4159C24.0359 17.8208 24.3744 17.2249 24.6945 16.6311ZM22.3842 17.697C21.8371 18.6099 21.2754 19.4815 20.7052 20.3042C19.6666 20.3756 18.5936 20.4124 17.5 20.4124C16.4108 20.4124 15.3514 20.3799 14.3311 20.3162C13.7379 19.4827 13.164 18.6086 12.6204 17.7048H12.6205C12.0783 16.8035 11.5793 15.8946 11.1271 14.9909C11.5792 14.085 12.0769 13.175 12.616 12.2754L12.6158 12.2756C13.1564 11.3735 13.7252 10.5036 14.3129 9.67538C15.3538 9.59966 16.4212 9.56015 17.4999 9.56015H17.5C18.5836 9.56015 19.6523 9.59996 20.6929 9.67634C21.2717 10.4985 21.8367 11.3656 22.3793 12.2678C22.9281 13.1801 23.4322 14.0839 23.8881 14.9704C23.4336 15.8721 22.9306 16.7851 22.3842 17.697ZM25.4686 1.62802C26.6406 2.27849 27.0964 4.90187 26.3601 8.34193C26.3131 8.56143 26.2602 8.78502 26.2027 9.01159C24.7507 8.68914 23.1739 8.44919 21.523 8.30014C20.5613 6.9821 19.5647 5.78385 18.5643 4.74646C18.8333 4.49746 19.1018 4.26003 19.3693 4.03597C21.9532 1.8718 24.3683 1.01735 25.4686 1.62802ZM17.5 11.9484C19.2261 11.9484 20.6254 13.2951 20.6254 14.9563C20.6254 16.6175 19.2261 17.9642 17.5 17.9642C15.7739 17.9642 14.3746 16.6175 14.3746 14.9563C14.3746 13.2951 15.7739 11.9484 17.5 11.9484Z" fill="#257BC2"/>
</g>
<defs>
<clipPath id="clip0_232_192">
<rect width="35" height="30" fill="white"/>
</clipPath>
</defs>
</svg>
