<svg width="29" height="30" viewBox="0 0 29 30" fill="none" xmlns="http://www.w3.org/2000/svg">
<g style="mix-blend-mode:luminosity" opacity="0.3" clip-path="url(#clip0_232_170)">
<path d="M0 0H29V30H0V0Z" fill="#017ACB"/>
<path d="M13.9245 11.1093H15.3156V13.5937H11.5547V24.6468L11.455 24.675C11.3191 24.7125 9.52922 24.7125 9.14406 24.6703L8.83593 24.6421V13.5937H5.075V11.1093L6.26672 11.0953C6.91922 11.0859 8.59578 11.0859 9.9914 11.0953C11.387 11.1046 13.1542 11.1093 13.9245 11.1093ZM24.5412 23.475C23.9884 24.0796 23.3948 24.4171 22.407 24.6937C21.9766 24.8156 21.9041 24.8203 20.9344 24.8156C19.9647 24.8109 19.8877 24.8109 19.4164 24.6843C18.1975 24.3609 17.2142 23.7281 16.5436 22.8328C16.3533 22.5796 16.0406 22.0546 16.0406 21.989C16.0406 21.9703 16.0859 21.9281 16.1448 21.9C16.2037 21.8718 16.3261 21.7921 16.4258 21.7312C16.5255 21.6703 16.7067 21.5578 16.8291 21.4921C16.9514 21.4265 17.3048 21.2109 17.613 21.0187C17.9211 20.8265 18.202 20.6718 18.2337 20.6718C18.2655 20.6718 18.3244 20.7375 18.3697 20.8171C18.6416 21.2906 19.2759 21.8953 19.7245 22.1015C20.0009 22.2234 20.6127 22.3593 20.9072 22.3593C21.1791 22.3593 21.6775 22.2375 21.9448 22.1109C22.2303 21.975 22.3753 21.839 22.5475 21.5671C22.6653 21.375 22.6789 21.3234 22.6744 20.9578C22.6744 20.6203 22.6562 20.5265 22.5656 20.3718C22.3119 19.9406 21.9675 19.7156 20.5719 19.0781C19.1309 18.4171 18.483 18.0234 17.9573 17.4937C17.5677 17.1 17.4906 16.9921 17.2459 16.5C16.9287 15.8671 16.888 15.6609 16.8834 14.7187C16.8789 14.0578 16.8925 13.8421 16.9605 13.6171C17.0556 13.2796 17.3637 12.6281 17.5042 12.464C17.7942 12.1125 17.8984 12.0046 18.1023 11.8312C18.7186 11.3062 19.6792 10.9593 20.5991 10.9265C20.7033 10.9265 21.0477 10.9453 21.3694 10.9687C22.2937 11.0484 22.9236 11.2828 23.5308 11.7843C23.9884 12.1593 24.6817 13.0406 24.6137 13.1578C24.5684 13.2281 22.7605 14.475 22.6427 14.5125C22.5702 14.5359 22.5203 14.5078 22.4206 14.3859C21.8044 13.6218 21.5552 13.4578 20.957 13.4203C20.5311 13.3921 20.3045 13.4437 20.0191 13.6406C19.72 13.8468 19.575 14.1609 19.575 14.5968C19.5795 15.2343 19.8152 15.5343 20.6852 15.9796C21.247 16.2656 21.7273 16.5 21.7636 16.5C21.818 16.5 22.9825 17.1 23.2861 17.2875C24.6998 18.1453 25.2753 19.0265 25.4248 20.5453C25.5336 21.689 25.2209 22.7343 24.5412 23.475Z" fill="white"/>
</g>
<defs>
<clipPath id="clip0_232_170">
<rect width="29" height="30" fill="white"/>
</clipPath>
</defs>
</svg>
